<svg xmlns="http://www.w3.org/2000/svg" width="11" height="15" viewBox="0 0 11 15" fill="none">
    <path d="M2.23486 14.9663C2.30981 14.9428 2.4369 14.8929 2.51185 14.8519C2.59006 14.8108 4.30416 13.2887 6.32133 11.4675C9.58985 8.52005 9.99719 8.14172 10.0624 8.00388C10.222 7.65488 10.222 7.34401 10.0624 6.99501C9.99719 6.85717 9.58659 6.47591 6.30503 3.51675C2.06215 -0.30757 2.46297 0.00623598 1.821 0.00623593C1.47231 0.00623591 1.43321 0.0121014 1.25072 0.091286C0.722802 0.325907 0.413221 0.862602 0.514242 1.36704C0.59897 1.78642 0.44255 1.63099 3.83816 4.69279L6.95352 7.49944L3.83816 10.309C0.442549 13.3679 0.598969 13.2125 0.514241 13.6318C0.41322 14.1363 0.722801 14.6759 1.25072 14.9047C1.42017 14.9809 1.48535 14.9927 1.77212 14.9985C1.98068 15.0044 2.14687 14.9927 2.23486 14.9663Z" fill="white"/>
</svg>
