<svg xmlns="http://www.w3.org/2000/svg" width="10" height="15" viewBox="0 0 10 15" fill="none">
    <path d="M8.20414 0.0337409C8.12676 0.057203 7.99557 0.10706 7.91819 0.148119C7.83745 0.189177 6.06795 1.71128 3.98559 3.53253C0.611421 6.47995 0.190911 6.85828 0.12363 6.99612C-0.0412099 7.34512 -0.0412099 7.65599 0.12363 8.00499C0.190911 8.14283 0.614785 8.52409 4.00241 11.4832C8.38243 15.3076 7.96865 14.9938 8.63138 14.9938C8.99133 14.9938 9.0317 14.9879 9.22009 14.9087C9.76507 14.6741 10.0847 14.1374 9.98037 13.633C9.8929 13.2136 10.0544 13.369 6.54901 10.3072L3.33296 7.50055L6.54901 4.69097C10.0544 1.6321 9.8929 1.78753 9.98037 1.36815C10.0847 0.863713 9.76507 0.324084 9.22009 0.0953289C9.04516 0.0190771 8.97788 0.00734605 8.68184 0.00148052C8.46654 -0.004385 8.29497 0.00734605 8.20414 0.0337409Z" fill="white"/>
</svg>