<svg width="53" height="51" viewBox="0 0 53 51" fill="none" xmlns="http://www.w3.org/2000/svg">
<g filter="url(#filter0_d_265_5294)">
<rect x="49" y="2" width="42.2449" height="45" rx="10" transform="rotate(90 49 2)" fill="#B8B8B8"/>
</g>
<path fill-rule="evenodd" clip-rule="evenodd" d="M18.5229 28.3071C18.907 27.7462 19.4767 27.3223 20.1435 27.124C20.4149 27.0433 20.7024 27 21 27C22.6569 27 24 28.3431 24 30C24 31.6569 22.6569 33 21 33C19.3431 33 18 31.6569 18 30C18 29.3719 18.193 28.789 18.5229 28.3071ZM17.5769 26.3555C18.0762 25.8863 18.6719 25.5186 19.3312 25.2853C19.1157 24.5612 19 23.7941 19 23C19 18.5817 22.5817 15 27 15C31.4183 15 35 18.5817 35 23C35 23.7941 34.8843 24.5612 34.6688 25.2853C35.3281 25.5186 35.9238 25.8863 36.4231 26.3555C36.7966 25.3066 37 24.1771 37 23C37 20.2386 35.8807 17.7386 34.0711 15.9289C32.2614 14.1193 29.7614 13 27 13C21.4772 13 17 17.4772 17 23C17 24.1771 17.2034 25.3066 17.5769 26.3555ZM35.4771 28.3071C35.807 28.789 36 29.3719 36 30C36 31.6569 34.6569 33 33 33C31.3431 33 30 31.6569 30 30C30 28.3431 31.3431 27 33 27C33.2976 27 33.5851 27.0433 33.8565 27.124C34.5233 27.3223 35.093 27.7462 35.4771 28.3071Z" fill="white"/>
<defs>
<filter id="filter0_d_265_5294" x="0" y="0" width="53" height="50.2451" filterUnits="userSpaceOnUse" color-interpolation-filters="sRGB">
<feFlood flood-opacity="0" result="BackgroundImageFix"/>
<feColorMatrix in="SourceAlpha" type="matrix" values="0 0 0 0 0 0 0 0 0 0 0 0 0 0 0 0 0 0 127 0" result="hardAlpha"/>
<feOffset dy="2"/>
<feGaussianBlur stdDeviation="2"/>
<feComposite in2="hardAlpha" operator="out"/>
<feColorMatrix type="matrix" values="0 0 0 0 0 0 0 0 0 0 0 0 0 0 0 0 0 0 0.25 0"/>
<feBlend mode="normal" in2="BackgroundImageFix" result="effect1_dropShadow_265_5294"/>
<feBlend mode="normal" in="SourceGraphic" in2="effect1_dropShadow_265_5294" result="shape"/>
</filter>
</defs>
</svg>
