<svg width="53" height="51" viewBox="0 0 53 51" fill="none" xmlns="http://www.w3.org/2000/svg">
<g filter="url(#filter0_d_265_5292)">
<rect x="49" y="2" width="42.2449" height="45" rx="10" transform="rotate(90 49 2)" fill="#7392FF"/>
</g>
<path fill-rule="evenodd" clip-rule="evenodd" d="M21 14H33V18H21V14ZM19 20V18V14C19 12.8954 19.8954 12 21 12H33C34.1046 12 35 12.8954 35 14V18V20V32C35 33.1046 34.1046 34 33 34H21C19.8954 34 19 33.1046 19 32V20ZM21 20H33V32H21V20ZM27 28C28.1046 28 29 27.1046 29 26C29 24.8954 28.1046 24 27 24C25.8954 24 25 24.8954 25 26C25 27.1046 25.8954 28 27 28ZM27 30C29.2091 30 31 28.2091 31 26C31 23.7909 29.2091 22 27 22C24.7909 22 23 23.7909 23 26C23 28.2091 24.7909 30 27 30ZM30 17C30.5523 17 31 16.5523 31 16C31 15.4477 30.5523 15 30 15C29.4477 15 29 15.4477 29 16C29 16.5523 29.4477 17 30 17ZM28 16C28 16.5523 27.5523 17 27 17C26.4477 17 26 16.5523 26 16C26 15.4477 26.4477 15 27 15C27.5523 15 28 15.4477 28 16ZM24 17C24.5523 17 25 16.5523 25 16C25 15.4477 24.5523 15 24 15C23.4477 15 23 15.4477 23 16C23 16.5523 23.4477 17 24 17Z" fill="white"/>
<defs>
<filter id="filter0_d_265_5292" x="0" y="0" width="53" height="50.2451" filterUnits="userSpaceOnUse" color-interpolation-filters="sRGB">
<feFlood flood-opacity="0" result="BackgroundImageFix"/>
<feColorMatrix in="SourceAlpha" type="matrix" values="0 0 0 0 0 0 0 0 0 0 0 0 0 0 0 0 0 0 127 0" result="hardAlpha"/>
<feOffset dy="2"/>
<feGaussianBlur stdDeviation="2"/>
<feComposite in2="hardAlpha" operator="out"/>
<feColorMatrix type="matrix" values="0 0 0 0 0 0 0 0 0 0 0 0 0 0 0 0 0 0 0.25 0"/>
<feBlend mode="normal" in2="BackgroundImageFix" result="effect1_dropShadow_265_5292"/>
<feBlend mode="normal" in="SourceGraphic" in2="effect1_dropShadow_265_5292" result="shape"/>
</filter>
</defs>
</svg>
