<svg width="53" height="51" viewBox="0 0 53 51" fill="none" xmlns="http://www.w3.org/2000/svg">
<g filter="url(#filter0_d_265_5297)">
<rect x="49" y="2" width="42.2449" height="45" rx="10" transform="rotate(90 49 2)" fill="#FFA943"/>
</g>
<path fill-rule="evenodd" clip-rule="evenodd" d="M21 13H33V19H37V33H17V19H21V13ZM27 15L23 19V31H25V28C25 26.8954 25.8954 26 27 26C28.1046 26 29 26.8954 29 28V31H31V19L27 15ZM19 26H21V31H19V26ZM21 21H19V24H21V21ZM33 26H35V31H33V26ZM35 21H33V24H35V21Z" fill="white"/>
<defs>
<filter id="filter0_d_265_5297" x="0" y="0" width="53" height="50.2451" filterUnits="userSpaceOnUse" color-interpolation-filters="sRGB">
<feFlood flood-opacity="0" result="BackgroundImageFix"/>
<feColorMatrix in="SourceAlpha" type="matrix" values="0 0 0 0 0 0 0 0 0 0 0 0 0 0 0 0 0 0 127 0" result="hardAlpha"/>
<feOffset dy="2"/>
<feGaussianBlur stdDeviation="2"/>
<feComposite in2="hardAlpha" operator="out"/>
<feColorMatrix type="matrix" values="0 0 0 0 0 0 0 0 0 0 0 0 0 0 0 0 0 0 0.25 0"/>
<feBlend mode="normal" in2="BackgroundImageFix" result="effect1_dropShadow_265_5297"/>
<feBlend mode="normal" in="SourceGraphic" in2="effect1_dropShadow_265_5297" result="shape"/>
</filter>
</defs>
</svg>
