<svg width="45" height="45" viewBox="0 0 45 45" fill="none" xmlns="http://www.w3.org/2000/svg">
<rect x="45" width="45" height="45" rx="22.5" transform="rotate(90 45 0)" fill="#FFB1B1"/>
<g clip-path="url(#clip0_289_2156)">
<g filter="url(#filter0_d_289_2156)">
<path fill-rule="evenodd" clip-rule="evenodd" d="M16 16C17.6569 16 19 14.6569 19 13C19 11.3431 17.6569 10 16 10C14.3431 10 13 11.3431 13 13C13 14.6569 14.3431 16 16 16ZM19 20H15L24 14L33 20H29V27.8547C28.7101 27.7193 28.4233 27.5541 28.1433 27.359L26.9966 26.5601L25.8522 27.3622C24.1012 28.5893 21.8988 28.5893 20.1478 27.3622L19.0034 26.5601L19 26.5624V20ZM28.9363 29.9788C28.2625 29.755 27.61 29.425 27 29C26.3526 29.4537 25.6573 29.7871 24.9395 30C23.6285 30.389 22.2424 30.3763 20.9363 29.9619C20.2625 29.7481 19.61 29.4275 19 29C17.78 29.85 16.39 30.32 15 30.32H13V32.32H15C16.38 32.32 17.74 31.97 19 31.33C21.52 32.62 24.48 32.62 27 31.33C28.26 31.98 29.62 32.32 31 32.32H33V30.32H31C30.305 30.32 29.61 30.2025 28.9363 29.9788ZM21 22H23V26H21V22ZM27 22H25V26H27V22Z" fill="white"/>
</g>
</g>
<defs>
<filter id="filter0_d_289_2156" x="9" y="10" width="28" height="30.3201" filterUnits="userSpaceOnUse" color-interpolation-filters="sRGB">
<feFlood flood-opacity="0" result="BackgroundImageFix"/>
<feColorMatrix in="SourceAlpha" type="matrix" values="0 0 0 0 0 0 0 0 0 0 0 0 0 0 0 0 0 0 127 0" result="hardAlpha"/>
<feOffset dy="4"/>
<feGaussianBlur stdDeviation="2"/>
<feComposite in2="hardAlpha" operator="out"/>
<feColorMatrix type="matrix" values="0 0 0 0 0 0 0 0 0 0 0 0 0 0 0 0 0 0 0.25 0"/>
<feBlend mode="normal" in2="BackgroundImageFix" result="effect1_dropShadow_289_2156"/>
<feBlend mode="normal" in="SourceGraphic" in2="effect1_dropShadow_289_2156" result="shape"/>
</filter>
<clipPath id="clip0_289_2156">
<rect width="24" height="32" fill="white" transform="translate(11 9)"/>
</clipPath>
</defs>
</svg>
