<svg width="45" height="45" viewBox="0 0 45 45" fill="none" xmlns="http://www.w3.org/2000/svg">
<rect x="45" width="45" height="45" rx="22.5" transform="rotate(90 45 0)" fill="#FF7979"/>
<g clip-path="url(#clip0_289_2198)">
<g filter="url(#filter0_d_289_2198)">
<path fill-rule="evenodd" clip-rule="evenodd" d="M19.0001 12C16.5811 12 14.5634 13.7178 14.1001 16H18.2888C18.0414 16.1705 17.806 16.3657 17.5859 16.5858C15.8754 18.2962 15.6633 20.9376 16.9495 22.879L21.7454 18.0831C21.6876 18.2184 21.6295 18.3586 21.5715 18.5036C20.8519 20.3026 20.1394 22.849 20.0181 26.0432C17.0024 26.3099 14.3363 27.7936 12.5142 30H29.4855C27.671 27.8029 25.0196 26.3224 22.0195 26.0466C22.139 23.1453 22.7872 20.8495 23.4285 19.2464C23.7836 18.3585 24.1366 17.6834 24.396 17.2365C24.3975 17.234 24.399 17.2315 24.4004 17.2289L30.0505 22.879C31.3367 20.9376 31.1246 18.2962 29.4141 16.5858C29.194 16.3657 28.9586 16.1705 28.7112 16H32.8999C32.4366 13.7178 30.4189 12 27.9999 12C26.0209 12 24.3104 13.1498 23.5 14.8178C22.6896 13.1498 20.9791 12 19.0001 12Z" fill="white"/>
</g>
</g>
<defs>
<filter id="filter0_d_289_2198" x="8.51416" y="12" width="28.3857" height="26" filterUnits="userSpaceOnUse" color-interpolation-filters="sRGB">
<feFlood flood-opacity="0" result="BackgroundImageFix"/>
<feColorMatrix in="SourceAlpha" type="matrix" values="0 0 0 0 0 0 0 0 0 0 0 0 0 0 0 0 0 0 127 0" result="hardAlpha"/>
<feOffset dy="4"/>
<feGaussianBlur stdDeviation="2"/>
<feComposite in2="hardAlpha" operator="out"/>
<feColorMatrix type="matrix" values="0 0 0 0 0 0 0 0 0 0 0 0 0 0 0 0 0 0 0.25 0"/>
<feBlend mode="normal" in2="BackgroundImageFix" result="effect1_dropShadow_289_2198"/>
<feBlend mode="normal" in="SourceGraphic" in2="effect1_dropShadow_289_2198" result="shape"/>
</filter>
<clipPath id="clip0_289_2198">
<rect width="29" height="27" fill="white" transform="translate(9 10)"/>
</clipPath>
</defs>
</svg>
