<svg width="45" height="45" viewBox="0 0 45 45" fill="none" xmlns="http://www.w3.org/2000/svg">
<rect x="45" width="45" height="45" rx="22.5" transform="rotate(90 45 0)" fill="#88BDE7"/>
<g clip-path="url(#clip0_289_2189)">
<g filter="url(#filter0_d_289_2189)">
<path fill-rule="evenodd" clip-rule="evenodd" d="M14 29V21L15.5856 15.4506C15.8309 14.592 16.6156 14 17.5086 14H20V12H26V14H28.4914C29.3844 14 30.1691 14.592 30.4144 15.4506L32 21V29C32 29.55 31.55 30 31 30H30C29.45 30 29 29.55 29 29V28H17V29C17 29.55 16.55 30 16 30H15C14.45 30 14 29.55 14 29ZM17.5 25C16.67 25 16 24.33 16 23.5C16 22.67 16.67 22 17.5 22C18.33 22 19 22.67 19 23.5C19 24.33 18.33 25 17.5 25ZM28.5 25C27.67 25 27 24.33 27 23.5C27 22.67 27.67 22 28.5 22C29.33 22 30 22.67 30 23.5C30 24.33 29.33 25 28.5 25ZM29.3485 19H16.6515L17.5086 16H28.4914L29.3485 19Z" fill="white"/>
</g>
</g>
<defs>
<filter id="filter0_d_289_2189" x="10" y="12" width="26" height="26" filterUnits="userSpaceOnUse" color-interpolation-filters="sRGB">
<feFlood flood-opacity="0" result="BackgroundImageFix"/>
<feColorMatrix in="SourceAlpha" type="matrix" values="0 0 0 0 0 0 0 0 0 0 0 0 0 0 0 0 0 0 127 0" result="hardAlpha"/>
<feOffset dy="4"/>
<feGaussianBlur stdDeviation="2"/>
<feComposite in2="hardAlpha" operator="out"/>
<feColorMatrix type="matrix" values="0 0 0 0 0 0 0 0 0 0 0 0 0 0 0 0 0 0 0.25 0"/>
<feBlend mode="normal" in2="BackgroundImageFix" result="effect1_dropShadow_289_2189"/>
<feBlend mode="normal" in="SourceGraphic" in2="effect1_dropShadow_289_2189" result="shape"/>
</filter>
<clipPath id="clip0_289_2189">
<rect width="24" height="28" fill="white" transform="translate(11 9)"/>
</clipPath>
</defs>
</svg>
