<svg width="45" height="45" viewBox="0 0 45 45" fill="none" xmlns="http://www.w3.org/2000/svg">
<rect x="45" width="45" height="45" rx="22.5" transform="rotate(90 45 0)" fill="#7392FF"/>
<g clip-path="url(#clip0_289_2195)">
<g filter="url(#filter0_d_289_2195)">
<path fill-rule="evenodd" clip-rule="evenodd" d="M17 13H29V17H17V13ZM15 19V17V13C15 11.8954 15.8954 11 17 11H29C30.1046 11 31 11.8954 31 13V17V19V31C31 32.1046 30.1046 33 29 33H17C15.8954 33 15 32.1046 15 31V19ZM17 19H29V31H17V19ZM23 27C24.1046 27 25 26.1046 25 25C25 23.8954 24.1046 23 23 23C21.8954 23 21 23.8954 21 25C21 26.1046 21.8954 27 23 27ZM23 29C25.2091 29 27 27.2091 27 25C27 22.7909 25.2091 21 23 21C20.7909 21 19 22.7909 19 25C19 27.2091 20.7909 29 23 29ZM26 16C26.5523 16 27 15.5523 27 15C27 14.4477 26.5523 14 26 14C25.4477 14 25 14.4477 25 15C25 15.5523 25.4477 16 26 16ZM24 15C24 15.5523 23.5523 16 23 16C22.4477 16 22 15.5523 22 15C22 14.4477 22.4477 14 23 14C23.5523 14 24 14.4477 24 15ZM20 16C20.5523 16 21 15.5523 21 15C21 14.4477 20.5523 14 20 14C19.4477 14 19 14.4477 19 15C19 15.5523 19.4477 16 20 16Z" fill="white"/>
</g>
</g>
<defs>
<filter id="filter0_d_289_2195" x="11" y="11" width="24" height="30" filterUnits="userSpaceOnUse" color-interpolation-filters="sRGB">
<feFlood flood-opacity="0" result="BackgroundImageFix"/>
<feColorMatrix in="SourceAlpha" type="matrix" values="0 0 0 0 0 0 0 0 0 0 0 0 0 0 0 0 0 0 127 0" result="hardAlpha"/>
<feOffset dy="4"/>
<feGaussianBlur stdDeviation="2"/>
<feComposite in2="hardAlpha" operator="out"/>
<feColorMatrix type="matrix" values="0 0 0 0 0 0 0 0 0 0 0 0 0 0 0 0 0 0 0.25 0"/>
<feBlend mode="normal" in2="BackgroundImageFix" result="effect1_dropShadow_289_2195"/>
<feBlend mode="normal" in="SourceGraphic" in2="effect1_dropShadow_289_2195" result="shape"/>
</filter>
<clipPath id="clip0_289_2195">
<rect width="24" height="30" fill="white" transform="translate(11 10)"/>
</clipPath>
</defs>
</svg>
