<svg width="45" height="45" viewBox="0 0 45 45" fill="none" xmlns="http://www.w3.org/2000/svg">
<rect x="45" width="45" height="45" rx="22.5" transform="rotate(90 45 0)" fill="#FFA943"/>
<g filter="url(#filter0_d_289_2201)">
<path fill-rule="evenodd" clip-rule="evenodd" d="M17 11.5869H29V17.5869H33V31.5869H13V17.5869H17V11.5869ZM23 13.5869L19 17.5869V29.5869H21V26.5869C21 25.4823 21.8954 24.5869 23 24.5869C24.1046 24.5869 25 25.4823 25 26.5869V29.5869H27V17.5869L23 13.5869ZM15 24.5869H17V29.5869H15V24.5869ZM17 19.5869H15V22.5869H17V19.5869ZM29 24.5869H31V29.5869H29V24.5869ZM31 19.5869H29V22.5869H31V19.5869Z" fill="white"/>
</g>
<defs>
<filter id="filter0_d_289_2201" x="9" y="11.5869" width="28" height="28" filterUnits="userSpaceOnUse" color-interpolation-filters="sRGB">
<feFlood flood-opacity="0" result="BackgroundImageFix"/>
<feColorMatrix in="SourceAlpha" type="matrix" values="0 0 0 0 0 0 0 0 0 0 0 0 0 0 0 0 0 0 127 0" result="hardAlpha"/>
<feOffset dy="4"/>
<feGaussianBlur stdDeviation="2"/>
<feComposite in2="hardAlpha" operator="out"/>
<feColorMatrix type="matrix" values="0 0 0 0 0 0 0 0 0 0 0 0 0 0 0 0 0 0 0.25 0"/>
<feBlend mode="normal" in2="BackgroundImageFix" result="effect1_dropShadow_289_2201"/>
<feBlend mode="normal" in="SourceGraphic" in2="effect1_dropShadow_289_2201" result="shape"/>
</filter>
</defs>
</svg>
