<svg width="53" height="51" viewBox="0 0 53 51" fill="none" xmlns="http://www.w3.org/2000/svg">
<g filter="url(#filter0_d_265_5296)">
<rect x="49" y="2" width="42.2449" height="45" rx="10" transform="rotate(90 49 2)" fill="#FF7979"/>
</g>
<path fill-rule="evenodd" clip-rule="evenodd" d="M24.0001 14C21.5811 14 19.5634 15.7178 19.1001 18H23.2888C23.0414 18.1705 22.806 18.3657 22.5859 18.5858C20.8754 20.2962 20.6633 22.9376 21.9495 24.879L26.7454 20.0831C26.6876 20.2184 26.6295 20.3586 26.5715 20.5036C25.8519 22.3026 25.1394 24.849 25.0181 28.0432C22.0024 28.3099 19.3363 29.7936 17.5142 32H34.4855C32.671 29.8029 30.0196 28.3224 27.0195 28.0466C27.139 25.1453 27.7872 22.8495 28.4285 21.2464C28.7836 20.3585 29.1366 19.6834 29.396 19.2365C29.3975 19.234 29.399 19.2315 29.4004 19.2289L35.0505 24.879C36.3367 22.9376 36.1246 20.2962 34.4141 18.5858C34.194 18.3657 33.9586 18.1705 33.7112 18H37.8999C37.4366 15.7178 35.4189 14 32.9999 14C31.0209 14 29.3104 15.1498 28.5 16.8178C27.6896 15.1498 25.9791 14 24.0001 14Z" fill="white"/>
<defs>
<filter id="filter0_d_265_5296" x="0" y="0" width="53" height="50.2451" filterUnits="userSpaceOnUse" color-interpolation-filters="sRGB">
<feFlood flood-opacity="0" result="BackgroundImageFix"/>
<feColorMatrix in="SourceAlpha" type="matrix" values="0 0 0 0 0 0 0 0 0 0 0 0 0 0 0 0 0 0 127 0" result="hardAlpha"/>
<feOffset dy="2"/>
<feGaussianBlur stdDeviation="2"/>
<feComposite in2="hardAlpha" operator="out"/>
<feColorMatrix type="matrix" values="0 0 0 0 0 0 0 0 0 0 0 0 0 0 0 0 0 0 0.25 0"/>
<feBlend mode="normal" in2="BackgroundImageFix" result="effect1_dropShadow_265_5296"/>
<feBlend mode="normal" in="SourceGraphic" in2="effect1_dropShadow_265_5296" result="shape"/>
</filter>
</defs>
</svg>
