<svg width="53" height="51" viewBox="0 0 53 51" fill="none" xmlns="http://www.w3.org/2000/svg">
<g filter="url(#filter0_d_265_5295)">
<rect x="49" y="2" width="42.2449" height="45" rx="10" transform="rotate(90 49 2)" fill="#88BDE7"/>
</g>
<path fill-rule="evenodd" clip-rule="evenodd" d="M18 31V23L19.5856 17.4506C19.8309 16.592 20.6156 16 21.5086 16H24V14H30V16H32.4914C33.3844 16 34.1691 16.592 34.4144 17.4506L36 23V31C36 31.55 35.55 32 35 32H34C33.45 32 33 31.55 33 31V30H21V31C21 31.55 20.55 32 20 32H19C18.45 32 18 31.55 18 31ZM21.5 27C20.67 27 20 26.33 20 25.5C20 24.67 20.67 24 21.5 24C22.33 24 23 24.67 23 25.5C23 26.33 22.33 27 21.5 27ZM32.5 27C31.67 27 31 26.33 31 25.5C31 24.67 31.67 24 32.5 24C33.33 24 34 24.67 34 25.5C34 26.33 33.33 27 32.5 27ZM33.3485 21H20.6515L21.5086 18H32.4914L33.3485 21Z" fill="white"/>
<defs>
<filter id="filter0_d_265_5295" x="0" y="0" width="53" height="50.2451" filterUnits="userSpaceOnUse" color-interpolation-filters="sRGB">
<feFlood flood-opacity="0" result="BackgroundImageFix"/>
<feColorMatrix in="SourceAlpha" type="matrix" values="0 0 0 0 0 0 0 0 0 0 0 0 0 0 0 0 0 0 127 0" result="hardAlpha"/>
<feOffset dy="2"/>
<feGaussianBlur stdDeviation="2"/>
<feComposite in2="hardAlpha" operator="out"/>
<feColorMatrix type="matrix" values="0 0 0 0 0 0 0 0 0 0 0 0 0 0 0 0 0 0 0.25 0"/>
<feBlend mode="normal" in2="BackgroundImageFix" result="effect1_dropShadow_265_5295"/>
<feBlend mode="normal" in="SourceGraphic" in2="effect1_dropShadow_265_5295" result="shape"/>
</filter>
</defs>
</svg>
