<svg width="53" height="51" viewBox="0 0 53 51" fill="none" xmlns="http://www.w3.org/2000/svg">
<g filter="url(#filter0_d_265_5289)">
<rect x="49" y="2" width="42.2449" height="45" rx="10" transform="rotate(90 49 2)" fill="#FFE24A"/>
</g>
<path fill-rule="evenodd" clip-rule="evenodd" d="M22 20H24V13H26V20C26 22.12 24.34 23.84 22.25 23.97V33H19.75V23.97C17.66 23.84 16 22.12 16 20V13H18V20H20V13H22V20ZM28 23C28 17.4772 32.4772 13 38 13V15C33.5817 15 30 18.5817 30 23C30 27.4183 33.5817 31 38 31V33C32.4772 33 28 28.5228 28 23ZM32 23C32 19.6863 34.6863 17 38 17V19C35.7909 19 34 20.7909 34 23C34 25.2091 35.7909 27 38 27V29C34.6863 29 32 26.3137 32 23Z" fill="white"/>
<defs>
<filter id="filter0_d_265_5289" x="0" y="0" width="53" height="50.2451" filterUnits="userSpaceOnUse" color-interpolation-filters="sRGB">
<feFlood flood-opacity="0" result="BackgroundImageFix"/>
<feColorMatrix in="SourceAlpha" type="matrix" values="0 0 0 0 0 0 0 0 0 0 0 0 0 0 0 0 0 0 127 0" result="hardAlpha"/>
<feOffset dy="2"/>
<feGaussianBlur stdDeviation="2"/>
<feComposite in2="hardAlpha" operator="out"/>
<feColorMatrix type="matrix" values="0 0 0 0 0 0 0 0 0 0 0 0 0 0 0 0 0 0 0.25 0"/>
<feBlend mode="normal" in2="BackgroundImageFix" result="effect1_dropShadow_265_5289"/>
<feBlend mode="normal" in="SourceGraphic" in2="effect1_dropShadow_265_5289" result="shape"/>
</filter>
</defs>
</svg>
