<svg width="45" height="46" viewBox="0 0 45 46" fill="none" xmlns="http://www.w3.org/2000/svg">
<path d="M22.5 0.500007C34.9264 0.500009 45 10.5736 45 23V23C45 35.4264 34.9264 45.5 22.5 45.5V45.5C10.0736 45.5 -4.01531e-09 35.4264 2.71186e-06 23V23C5.42774e-06 10.5736 10.0736 0.500004 22.5 0.500007V0.500007Z" fill="#8ED56C"/>
<g filter="url(#filter0_d_306_2225)">
<path d="M15 21V28H18V21H15ZM21 21V28H24V21H21ZM13 33H32V30H13V33ZM27 21V28H30V21H27ZM22.5 12L13 17V19H32V17L22.5 12Z" fill="white"/>
</g>
<defs>
<filter id="filter0_d_306_2225" x="9" y="12" width="27" height="29" filterUnits="userSpaceOnUse" color-interpolation-filters="sRGB">
<feFlood flood-opacity="0" result="BackgroundImageFix"/>
<feColorMatrix in="SourceAlpha" type="matrix" values="0 0 0 0 0 0 0 0 0 0 0 0 0 0 0 0 0 0 127 0" result="hardAlpha"/>
<feOffset dy="4"/>
<feGaussianBlur stdDeviation="2"/>
<feComposite in2="hardAlpha" operator="out"/>
<feColorMatrix type="matrix" values="0 0 0 0 0 0 0 0 0 0 0 0 0 0 0 0 0 0 0.25 0"/>
<feBlend mode="normal" in2="BackgroundImageFix" result="effect1_dropShadow_306_2225"/>
<feBlend mode="normal" in="SourceGraphic" in2="effect1_dropShadow_306_2225" result="shape"/>
</filter>
</defs>
</svg>
