<svg width="43" height="43" viewBox="0 0 43 43" fill="none" xmlns="http://www.w3.org/2000/svg">
<g id="Group">
<path id="Vector" d="M37.625 35.8333C37.625 36.3085 37.4362 36.7642 37.1002 37.1002C36.7642 37.4362 36.3085 37.625 35.8333 37.625H7.16667C6.69149 37.625 6.23577 37.4362 5.89977 37.1002C5.56376 36.7642 5.375 36.3085 5.375 35.8333V17.0029C5.37481 16.7299 5.43702 16.4604 5.55688 16.2151C5.67674 15.9698 5.85108 15.7551 6.06658 15.5875L20.3999 4.43975C20.7144 4.19509 21.1015 4.06226 21.5 4.06226C21.8985 4.06226 22.2856 4.19509 22.6001 4.43975L36.9334 15.5875C37.1489 15.7551 37.3233 15.9698 37.4431 16.2151C37.563 16.4604 37.6252 16.7299 37.625 17.0029V35.8333ZM12.5417 26.875V30.4583H30.4583V26.875H12.5417Z" fill="#88BDE7"/>
</g>
</svg>
