<svg width="249" height="267" xmlns="http://www.w3.org/2000/svg" xmlns:xlink="http://www.w3.org/1999/xlink" xml:space="preserve" overflow="hidden"><g transform="translate(-504 -171)"><g><path d="M225.967 102.13C230.494 100.578 235.421 102.987 236.973 107.514 238.525 112.041 236.111 116.973 231.584 118.525 227.057 120.078 222.125 117.664 220.578 113.137 219.025 108.604 221.44 103.677 225.967 102.125ZM246.23 110.452C252.169 108.417 258.633 111.579 260.668 117.518 262.703 123.458 259.541 129.921 253.602 131.956 247.663 133.991 241.199 130.83 239.164 124.89 237.129 118.951 240.29 112.488 246.23 110.452ZM226.231 169.284C228.064 168.656 230.063 169.632 230.691 171.465 231.319 173.297 230.343 175.296 228.505 175.924 226.673 176.553 224.679 175.577 224.051 173.739 223.423 171.906 224.399 169.912 226.231 169.284ZM214.716 165.832C216.788 165.121 219.046 166.226 219.758 168.303 220.469 170.38 219.363 172.633 217.291 173.344 215.215 174.055 212.956 172.95 212.245 170.878 211.534 168.801 212.64 166.543 214.716 165.832ZM204.068 157.515C206.41 156.715 208.954 157.961 209.753 160.298 210.558 162.639 209.312 165.183 206.97 165.982 204.634 166.787 202.09 165.536 201.286 163.2 200.486 160.858 201.732 158.314 204.068 157.515ZM198.69 143.31C201.441 142.371 204.442 143.835 205.387 146.592 206.327 149.343 204.863 152.344 202.106 153.289 199.354 154.234 196.354 152.764 195.409 150.008 194.464 147.256 195.933 144.255 198.69 143.31ZM199.079 126.126C202.272 125.031 205.745 126.728 206.835 129.921 207.931 133.109 206.228 136.582 203.04 137.677 199.848 138.768 196.379 137.07 195.284 133.877 194.189 130.689 195.891 127.216 199.079 126.126ZM207.168 110.39C210.854 109.129 214.867 111.091 216.129 114.777 217.39 118.463 215.428 122.476 211.742 123.738 208.056 125.005 204.042 123.042 202.781 119.356 201.514 115.67 203.482 111.657 207.168 110.395Z" fill="#1D449B" fill-rule="evenodd" transform="matrix(1 0 0 1.0053 390.854 109.442)"/></g><g><path d="M249.085 160.786C244.558 162.338 239.631 159.924 238.079 155.397 236.527 150.869 238.941 145.937 243.468 144.385 247.995 142.838 252.922 145.247 254.474 149.774 256.026 154.301 253.612 159.233 249.085 160.78ZM228.822 152.458C222.883 154.493 216.419 151.332 214.384 145.392 212.349 139.453 215.511 132.989 221.45 130.954 227.389 128.919 233.853 132.081 235.888 138.02 237.923 143.959 234.756 150.423 228.822 152.458ZM248.82 93.6263C246.988 94.2545 244.989 93.2784 244.361 91.4458 243.733 89.6131 244.709 87.6143 246.546 86.9862 248.379 86.358 250.373 87.334 251.001 89.1718 251.629 91.0045 250.653 92.9981 248.82 93.6263ZM260.335 97.0787C258.264 97.79 256.006 96.6842 255.294 94.6075 254.583 92.536 255.689 90.2777 257.766 89.5664 259.837 88.8551 262.095 89.961 262.807 92.0324 263.518 94.1091 262.412 96.3675 260.335 97.0787ZM270.984 105.396C268.647 106.195 266.098 104.949 265.299 102.613 264.499 100.272 265.745 97.7277 268.081 96.9282 270.418 96.1287 272.967 97.3747 273.766 99.7109 274.571 102.052 273.32 104.596 270.984 105.396ZM276.367 119.6C273.611 120.54 270.61 119.076 269.67 116.319 268.72 113.567 270.189 110.567 272.946 109.622 275.698 108.682 278.698 110.146 279.643 112.903 280.588 115.66 279.119 118.655 276.362 119.6ZM275.973 136.79C272.78 137.88 269.312 136.182 268.216 132.989 267.121 129.802 268.824 126.329 272.012 125.238 275.204 124.143 278.672 125.846 279.768 129.033 280.858 132.221 279.16 135.694 275.973 136.79ZM267.884 152.52C264.198 153.782 260.185 151.82 258.923 148.133 257.657 144.447 259.624 140.434 263.31 139.173 266.996 137.906 271.009 139.874 272.271 143.56 273.533 147.246 271.57 151.259 267.884 152.52Z" fill="#A3C7F7" fill-rule="evenodd" transform="matrix(1 0 0 1.0053 390.854 109.442)"/></g><path d="M3.34342-31.2745 10.9648-31.2745 10.9648-5.79389 20.4551-5.79389 20.4551 0 3.34342 0Z" fill="#373435" transform="matrix(1 0 0 1.0053 556.692 341.883)"/><path d="M3.34342 0 3.34342-31.2745 10.9648-31.2745 10.9648 0Z" fill="#373435" transform="matrix(1 0 0 1.0053 584.934 341.883)"/><path d="M23.7155-31.3784 31.3368-31.3784 31.3368 0 23.7155 0 10.9648-19.7491 10.9648 0 3.34342 0 3.34342-31.3784 10.9648-31.3784 23.7155-11.6293Z" fill="#373435" transform="matrix(1 0 0 1.0053 606.139 341.883)"/><path d="M10.9648 0 3.34342 0 3.34342-31.2745 10.9648-31.2745 10.9648-17.5686 21.3065-31.2745 31.2745-31.2745 18.3992-15.6373 31.2745 0 21.4727 0 10.9648-13.8098Z" fill="#373435" transform="matrix(1 0 0 1.0053 647.698 341.883)"/><path d="M13.9344-25.7091C12.9895-25.7091 12.216-25.4495 11.6085-24.9407 10.9959-24.4423 10.6948-23.7155 10.6948-22.7602 10.6948-21.8153 10.9752-21.0573 11.5462-20.4759 12.1121-19.8944 12.8441-19.4427 13.7475-19.1261 14.6457-18.8197 15.6476-18.5238 16.7587-18.2331 17.8801-17.9527 18.9859-17.6153 20.0813-17.2155 21.1871-16.8106 22.1891-16.3122 23.0925-15.7203 24.0062-15.1389 24.7434-14.2978 25.3145-13.2076 25.8804-12.1277 26.1659-10.8298 26.1659-9.32421 26.1659-6.67647 25.0861-4.40771 22.9263-2.51276 20.777-0.62819 17.9424 0.311499 14.412 0.311499 10.8921 0.311499 8.05745-0.529549 5.89772-2.22203 3.74837-3.92489 2.67889-6.33382 2.67889-9.44881L10.7779-9.44881C10.9855-6.95682 12.2627-5.71082 14.6197-5.71082 15.7099-5.71082 16.5718-5.99117 17.1948-6.56225 17.8178-7.14372 18.1293-7.87574 18.1293-8.76351 18.1293-9.66167 17.8437-10.3937 17.2778-10.9648 16.7223-11.5307 15.9903-11.972 15.0766-12.2938 14.1732-12.6261 13.166-12.9272 12.0446-13.2076 10.9336-13.4983 9.8278-13.8513 8.72198-14.2667 7.62654-14.682 6.62455-15.17 5.71082-15.7411 4.80747-16.3226 4.07545-17.1532 3.50956-18.2331 2.95405-19.3233 2.67889-20.6109 2.67889-22.0957 2.67889-25.0134 3.75876-27.3496 5.91849-29.094 8.0886-30.8488 10.8609-31.7314 14.2251-31.7314 17.5997-31.7314 20.3305-30.963 22.4072-29.4263 24.4942-27.8999 25.5845-25.491 25.6675-22.1995L17.3817-22.1995C17.2571-23.3209 16.8884-24.1827 16.281-24.7953 15.6684-25.4028 14.8897-25.7091 13.9344-25.7091Z" fill="#373435" transform="matrix(1 0 0 1.0053 535.991 403.656)"/><path d="M1.20446-25.5014 1.20446-31.2745 25.896-31.2745 25.896-25.5014 17.3401-25.5014 17.3401 0 9.71878 0 9.71878-25.5014Z" fill="#373435" transform="matrix(1 0 0 1.0053 571.716 403.656)"/><path d="M23.5493-9.17884C25.0549-10.809 25.8129-12.9895 25.8129-15.7203 25.8129-18.4615 25.0549-20.6472 23.5493-22.2826 22.0541-23.9128 20.045-24.733 17.527-24.733 15.0195-24.733 13.0103-23.9128 11.5047-22.2826 10.0095-20.6472 9.26191-18.4615 9.26191-15.7203 9.26191-12.9895 10.0095-10.809 11.5047-9.17884 13.0103-7.54347 15.0195-6.72838 17.527-6.72838 20.045-6.72838 22.0541-7.54347 23.5493-9.17884ZM6.16768-4.23639C3.06308-7.26831 1.51596-11.0946 1.51596-15.7203 1.51596-20.3565 3.06308-24.1827 6.16768-27.2043 9.2671-30.2206 13.0674-31.7314 17.5686-31.7314 22.0801-31.7314 25.8752-30.2206 28.9487-27.2043 32.0221-24.1827 33.5588-20.3565 33.5588-15.7203 33.5588-11.0946 32.0117-7.26831 28.9279-4.23639 25.8389-1.20446 22.0438 0.311499 17.5478 0.311499 13.0622 0.311499 9.2671-1.20446 6.16768-4.23639Z" fill="#373435" transform="matrix(1 0 0 1.0053 605.703 403.656)"/><path d="M6.16768-4.25716C3.06308-7.27351 1.51596-11.0946 1.51596-15.7203 1.51596-20.3565 3.06308-24.1827 6.16768-27.2043 9.2671-30.2206 13.0674-31.7314 17.5686-31.7314 21.0418-31.7314 24.1308-30.8073 26.8305-28.9694 29.5301-27.1264 31.4095-24.5721 32.479-21.3065L23.404-21.3065C22.2099-23.5909 20.3097-24.733 17.6932-24.733 15.0766-24.733 13.0103-23.9128 11.5047-22.2826 10.0095-20.6472 9.26191-18.4615 9.26191-15.7203 9.26191-12.9895 10.0095-10.809 11.5047-9.17884 13.0103-7.54347 15.0766-6.72838 17.6932-6.72838 20.3097-6.72838 22.2099-7.87055 23.404-10.1549L32.479-10.1549C31.4095-6.88413 29.5301-4.32984 26.8305-2.49199 24.1308-0.648956 21.0418 0.269966 17.5686 0.269966 13.0674 0.269966 9.2671-1.23561 6.16768-4.25716Z" fill="#373435" transform="matrix(1 0 0 1.0053 647.708 403.656)"/><path d="M10.9648 0 3.34342 0 3.34342-31.2745 10.9648-31.2745 10.9648-17.5686 21.3065-31.2745 31.2745-31.2745 18.3992-15.6373 31.2745 0 21.4727 0 10.9648-13.8098Z" fill="#373435" transform="matrix(1 0 0 1.0053 688.644 403.656)"/></g></svg>