<svg width="404" height="94" xmlns="http://www.w3.org/2000/svg" xmlns:xlink="http://www.w3.org/1999/xlink" xml:space="preserve" overflow="hidden"><g transform="translate(-432 -276)"><g><path d="M74.6661 190.96C78.2688 189.727 82.1942 191.648 83.428 195.25 84.6671 198.853 82.746 202.778 79.1382 204.012 75.5356 205.251 71.6102 203.33 70.3763 199.722 69.1424 196.12 71.0635 192.194 74.6661 190.96ZM90.7999 197.588C95.5271 195.969 100.671 198.488 102.295 203.216 103.914 207.943 101.394 213.086 96.6672 214.706 91.94 216.33 86.7964 213.81 85.1773 209.083 83.553 204.356 86.0727 199.207 90.7999 197.588ZM74.8796 244.422C76.3373 243.922 77.9304 244.698 78.4302 246.161 78.93 247.619 78.1542 249.206 76.6913 249.706 75.2336 250.206 73.6457 249.43 73.146 247.973 72.641 246.51 73.4219 244.922 74.8796 244.422ZM65.7116 241.678C67.362 241.111 69.1581 241.991 69.7255 243.641 70.293 245.291 69.4132 247.088 67.7628 247.655 66.1073 248.222 64.3112 247.343 63.7437 245.692 63.1814 244.037 64.0613 242.241 65.7116 241.673ZM57.2361 235.056C59.0998 234.416 61.125 235.41 61.7602 237.269 62.4005 239.133 61.4114 241.158 59.5476 241.793 57.6838 242.433 55.6586 241.439 55.0235 239.58 54.3831 237.717 55.3775 235.691 57.2361 235.056ZM52.9514 223.749C55.1432 222.999 57.5328 224.165 58.2825 226.357 59.0374 228.549 57.866 230.938 55.6742 231.688 53.4824 232.443 51.098 231.271 50.3432 229.08 49.5935 226.888 50.7596 224.498 52.9514 223.749ZM53.2638 210.067C55.8044 209.192 58.5688 210.546 59.4382 213.086 60.3077 215.627 58.9593 218.391 56.4187 219.261 53.8781 220.13 51.1137 218.777 50.2442 216.236 49.3748 213.701 50.7284 210.936 53.2638 210.067ZM59.7038 197.541C62.6348 196.536 65.8314 198.098 66.8361 201.034 67.8409 203.965 66.2791 207.162 63.3428 208.167 60.4118 209.171 57.2152 207.61 56.2105 204.673 55.2057 201.742 56.7675 198.546 59.7038 197.541Z" fill="#1D449B" fill-rule="evenodd" transform="matrix(1.00143 0 0 1 389.958 109.826)"/></g><g><path d="M93.075 237.654C89.4671 238.893 85.5469 236.972 84.3131 233.364 83.074 229.762 84.9951 225.836 88.6029 224.602 92.2056 223.368 96.131 225.29 97.3648 228.892 98.5987 232.495 96.6776 236.42 93.075 237.654ZM76.9412 231.027C72.2141 232.651 67.0704 230.131 65.4461 225.404 63.827 220.677 66.3468 215.528 71.0739 213.909 75.8011 212.29 80.9447 214.81 82.5638 219.537 84.1881 224.264 81.6684 229.408 76.9412 231.027ZM92.8615 184.198C91.4038 184.697 89.8159 183.917 89.311 182.459 88.8112 181.001 89.5921 179.408 91.0498 178.908 92.5075 178.408 94.1006 179.189 94.6004 180.647 95.1002 182.105 94.3244 183.698 92.8615 184.198ZM102.029 186.941C100.379 187.509 98.583 186.629 98.0156 184.979 97.4481 183.323 98.3279 181.527 99.9835 180.959 101.634 180.397 103.43 181.277 103.997 182.927 104.565 184.578 103.68 186.374 102.029 186.941ZM110.505 193.563C108.641 194.204 106.616 193.209 105.981 191.346 105.341 189.487 106.335 187.462 108.194 186.822 110.057 186.186 112.083 187.176 112.723 189.039 113.358 190.898 112.369 192.928 110.505 193.563ZM114.79 204.871C112.598 205.621 110.208 204.455 109.459 202.258 108.704 200.066 109.875 197.682 112.067 196.932 114.259 196.177 116.643 197.348 117.398 199.54 118.148 201.732 116.981 204.121 114.79 204.871ZM114.477 218.553C111.937 219.422 109.172 218.074 108.303 215.533 107.433 212.993 108.787 210.228 111.322 209.359 113.863 208.489 116.627 209.843 117.497 212.378 118.366 214.919 117.018 217.683 114.477 218.553ZM108.037 231.079C105.106 232.084 101.91 230.522 100.905 227.585 99.9002 224.649 101.462 221.458 104.398 220.453 107.329 219.448 110.526 221.01 111.531 223.946 112.535 226.877 110.974 230.074 108.037 231.079Z" fill="#A3C7F7" fill-rule="evenodd" transform="matrix(1.00143 0 0 1 389.958 109.826)"/></g><path d="M3.35274-31.3617 10.9953-31.3617 10.9953-5.81003 20.5121-5.81003 20.5121 0 3.35274 0Z" fill="#A3C7F7" transform="matrix(1.00143 0 0 1 520.773 345.196)"/><path d="M3.35274 0 3.35274-31.3617 10.9953-31.3617 10.9953 0Z" fill="#A3C7F7" transform="matrix(1.00143 0 0 1 545.153 345.196)"/><path d="M23.7815-31.4658 31.4241-31.4658 31.4241 0 23.7815 0 10.9953-19.8041 10.9953 0 3.35274 0 3.35274-31.4658 10.9953-31.4658 23.7815-11.6617Z" fill="#A3C7F7" transform="matrix(1.00143 0 0 1 562.466 345.196)"/><path d="M10.9953 0 3.35274 0 3.35274-31.3617 10.9953-31.3617 10.9953-17.6175 21.3659-31.3617 31.3617-31.3617 18.4505-15.6808 31.3617 0 21.5325 0 10.9953-13.8483Z" fill="#A3C7F7" transform="matrix(1.00143 0 0 1 600.221 345.196)"/><path d="M13.9732-25.7807C13.0257-25.7807 12.25-25.5204 11.6409-25.0102 11.0266-24.5104 10.7246-23.7815 10.7246-22.8236 10.7246-21.8761 11.0057-21.116 11.5784-20.5329 12.1459-19.9498 12.8799-19.4969 13.7858-19.1793 14.6865-18.8722 15.6912-18.5754 16.8053-18.2839 17.9299-18.0028 19.0388-17.6644 20.1373-17.2635 21.2462-16.8574 22.2509-16.3576 23.1568-15.7641 24.0731-15.181 24.8124-14.3376 25.385-13.2444 25.9525-12.1615 26.2388-10.86 26.2388-9.35019 26.2388-6.69507 25.156-4.41999 22.9902-2.51976 20.8349-0.62994 17.9923 0.312367 14.4522 0.312367 10.9224 0.312367 8.0799-0.531025 5.91415-2.22822 3.75882-3.93583 2.68636-6.35146 2.68636-9.47513L10.8079-9.47513C11.0161-6.9762 12.2968-5.72673 14.6604-5.72673 15.7537-5.72673 16.6179-6.00786 17.2427-6.58053 17.8674-7.16362 18.1798-7.89768 18.1798-8.78793 18.1798-9.68858 17.8934-10.4226 17.326-10.9953 16.7689-11.5628 16.0348-12.0053 15.1186-12.3281 14.2127-12.6613 13.2027-12.9632 12.0782-13.2444 10.9641-13.5359 9.85518-13.8899 8.74628-14.3064 7.64779-14.7229 6.64301-15.2123 5.72673-15.7849 4.82087-16.368 4.0868-17.201 3.51934-18.2839 2.96228-19.3772 2.68636-20.6683 2.68636-22.1572 2.68636-25.0831 3.76923-27.4258 5.93497-29.1751 8.11113-30.9348 10.8912-31.8198 14.2648-31.8198 17.6487-31.8198 20.3872-31.0493 22.4696-29.5083 24.5625-27.9777 25.6557-25.562 25.739-22.2614L17.4301-22.2614C17.3051-23.3859 16.9355-24.2501 16.3264-24.8644 15.7121-25.4735 14.9311-25.7807 13.9732-25.7807Z" fill="#A3C7F7" transform="matrix(1.00143 0 0 1 651.755 345.196)"/><path d="M1.20782-25.5725 1.20782-31.3617 25.9681-31.3617 25.9681-25.5725 17.3884-25.5725 17.3884 0 9.74585 0 9.74585-25.5725Z" fill="#A3C7F7" transform="matrix(1.00143 0 0 1 683.65 345.196)"/><path d="M23.615-9.20442C25.1247-10.8391 25.8848-13.0257 25.8848-15.7641 25.8848-18.513 25.1247-20.7047 23.615-22.3447 22.1156-23.9794 20.1008-24.8019 17.5759-24.8019 15.0613-24.8019 13.0465-23.9794 11.5368-22.3447 10.0374-20.7047 9.28771-18.513 9.28771-15.7641 9.28771-13.0257 10.0374-10.8391 11.5368-9.20442 13.0465-7.56449 15.0613-6.74713 17.5759-6.74713 20.1008-6.74713 22.1156-7.56449 23.615-9.20442ZM6.18487-4.24819C3.07161-7.28857 1.52019-11.1255 1.52019-15.7641 1.52019-20.4132 3.07161-24.2501 6.18487-27.2801 9.29292-30.3048 13.1038-31.8198 17.6175-31.8198 22.1416-31.8198 25.9473-30.3048 29.0293-27.2801 32.1113-24.2501 33.6523-20.4132 33.6523-15.7641 33.6523-11.1255 32.1009-7.28857 29.0085-4.24819 25.9108-1.20782 22.1052 0.312367 17.5967 0.312367 13.0986 0.312367 9.29292-1.20782 6.18487-4.24819Z" fill="#A3C7F7" transform="matrix(1.00143 0 0 1 713.801 345.196)"/><path d="M6.18487-4.26902C3.07161-7.29377 1.52019-11.1255 1.52019-15.7641 1.52019-20.4132 3.07161-24.2501 6.18487-27.2801 9.29292-30.3048 13.1038-31.8198 17.6175-31.8198 21.1004-31.8198 24.198-30.8931 26.9052-29.0501 29.6124-27.202 31.497-24.6406 32.5695-21.3659L23.4692-21.3659C22.2718-23.6566 20.3663-24.8019 17.7424-24.8019 15.1186-24.8019 13.0465-23.9794 11.5368-22.3447 10.0374-20.7047 9.28771-18.513 9.28771-15.7641 9.28771-13.0257 10.0374-10.8391 11.5368-9.20442 13.0465-7.56449 15.1186-6.74713 17.7424-6.74713 20.3663-6.74713 22.2718-7.89247 23.4692-10.1832L32.5695-10.1832C31.497-6.90331 29.6124-4.3419 26.9052-2.49894 24.198-0.650764 21.1004 0.270718 17.6175 0.270718 13.1038 0.270718 9.29292-1.23906 6.18487-4.26902Z" fill="#A3C7F7" transform="matrix(1.00143 0 0 1 752.004 345.196)"/><path d="M10.9953 0 3.35274 0 3.35274-31.3617 10.9953-31.3617 10.9953-17.6175 21.3659-31.3617 31.3617-31.3617 18.4505-15.6808 31.3617 0 21.5325 0 10.9953-13.8483Z" fill="#A3C7F7" transform="matrix(1.00143 0 0 1 789.133 345.196)"/></g></svg>