<svg width="269" height="49" xmlns="http://www.w3.org/2000/svg" xmlns:xlink="http://www.w3.org/1999/xlink" xml:space="preserve" overflow="hidden"><g transform="translate(-521 -301)"><g><path d="M48.6314 104.262C50.4102 103.653 52.3484 104.603 52.958 106.382 53.5676 108.161 52.6204 110.099 50.8385 110.712 49.0596 111.321 47.1214 110.371 46.5118 108.592 45.9022 106.81 46.8494 104.872 48.6314 104.262ZM56.6001 107.535C58.9354 106.735 61.477 107.979 62.2773 110.315 63.0776 112.65 61.8334 115.192 59.4981 115.992 57.1628 116.792 54.6212 115.548 53.8209 113.213 53.0206 110.877 54.2648 108.336 56.6001 107.535ZM48.7345 130.669C49.4567 130.422 50.2414 130.807 50.4883 131.529 50.7353 132.248 50.3508 133.033 49.6317 133.28 48.9096 133.527 48.1249 133.142 47.8779 132.423 47.631 131.701 48.0155 130.916 48.7345 130.669ZM44.2078 129.313C45.0237 129.034 45.9084 129.469 46.1898 130.285 46.468 131.101 46.0335 131.989 45.2175 132.267 44.4016 132.548 43.5169 132.114 43.2355 131.298 42.9573 130.482 43.3918 129.594 44.2078 129.313ZM40.0218 126.043C40.9409 125.727 41.9413 126.218 42.257 127.137 42.5696 128.056 42.0819 129.056 41.1628 129.372 40.2437 129.688 39.2402 129.197 38.9276 128.278 38.6118 127.359 39.0995 126.358 40.0218 126.043ZM37.9053 120.459C38.987 120.087 40.1656 120.662 40.5376 121.747 40.9096 122.829 40.3313 124.011 39.2496 124.379 38.1648 124.751 36.9862 124.173 36.6142 123.091 36.2453 122.01 36.8205 120.828 37.9053 120.459ZM38.0585 113.7C39.3121 113.269 40.6783 113.938 41.1097 115.192 41.538 116.445 40.869 117.811 39.6154 118.243 38.3617 118.671 36.9956 118.002 36.5673 116.748 36.1359 115.495 36.8049 114.129 38.0585 113.7ZM41.2379 107.514C42.6884 107.016 44.2672 107.789 44.7611 109.239 45.2582 110.687 44.486 112.265 43.0386 112.762 41.588 113.26 40.0093 112.487 39.5122 111.037 39.0183 109.586 39.7904 108.011 41.2379 107.514Z" fill="#1D449B" fill-rule="evenodd" transform="matrix(1.00181 0 0 1 489.789 210.23)"/></g><g><path d="M57.7224 127.327C55.9404 127.937 54.0053 126.99 53.3926 125.208 52.783 123.429 53.7333 121.491 55.5121 120.881 57.2941 120.272 59.2323 121.219 59.842 122.998 60.4516 124.78 59.5012 126.718 57.7224 127.327ZM49.7537 124.054C47.4184 124.855 44.8768 123.61 44.0765 121.275 43.2762 118.94 44.5204 116.398 46.8557 115.598 49.1909 114.798 51.7326 116.042 52.5329 118.377 53.3332 120.712 52.0889 123.254 49.7537 124.054ZM57.6161 100.92C56.8971 101.167 56.1124 100.783 55.8654 100.064 55.6184 99.3416 56.003 98.557 56.722 98.31 57.4441 98.063 58.2288 98.4475 58.4758 99.1697 58.7228 99.8887 58.3382 100.673 57.6161 100.92ZM62.146 102.277C61.33 102.559 60.4422 102.124 60.164 101.308 59.8826 100.492 60.3171 99.6042 61.1331 99.3229 61.949 99.0447 62.8369 99.4792 63.1182 100.295 63.3965 101.111 62.9619 101.999 62.146 102.277ZM66.332 105.547C65.4129 105.863 64.4125 105.372 64.0967 104.453 63.781 103.534 64.2718 102.534 65.1909 102.218 66.11 101.902 67.1104 102.393 67.4261 103.312 67.7419 104.234 67.2511 105.235 66.332 105.547ZM68.4484 111.134C67.3667 111.503 66.185 110.927 65.8161 109.843 65.4441 108.761 66.0225 107.582 67.1041 107.21 68.1858 106.838 69.3644 107.417 69.7364 108.501 70.1084 109.583 69.5301 110.762 68.4484 111.134ZM68.2952 117.893C67.0385 118.321 65.6755 117.655 65.244 116.398 64.8158 115.145 65.4816 113.778 66.7353 113.35 67.992 112.919 69.355 113.588 69.7864 114.841 70.2147 116.098 69.5488 117.461 68.2952 117.893ZM65.1127 124.079C63.6653 124.576 62.0866 123.804 61.5895 122.354 61.0924 120.903 61.8646 119.328 63.3152 118.83 64.7626 118.333 66.3413 119.106 66.8384 120.556 67.3355 122.004 66.5633 123.582 65.1127 124.079Z" fill="#A3C7F7" fill-rule="evenodd" transform="matrix(1.00181 0 0 1 489.789 210.23)"/></g><path d="M2.01328-18.8323 6.60256-18.8323 6.60256-3.48885 12.3173-3.48885 12.3173 0 2.01328 0Z" fill="#373435" transform="matrix(1.00181 0 0 1 567.214 335.454)"/><path d="M2.01328 0 2.01328-18.8323 6.60256-18.8323 6.60256 0Z" fill="#373435" transform="matrix(1.00181 0 0 1 584.251 335.454)"/><path d="M14.2805-18.8948 18.8698-18.8948 18.8698 0 14.2805 0 6.60256-11.8921 6.60256 0 2.01328 0 2.01328-18.8948 6.60256-18.8948 14.2805-7.00272Z" fill="#373435" transform="matrix(1.00181 0 0 1 597.043 335.454)"/><path d="M6.60256 0 2.01328 0 2.01328-18.8323 6.60256-18.8323 6.60256-10.5791 12.83-18.8323 18.8323-18.8323 11.0793-9.41615 18.8323 0 12.93 0 6.60256-8.31572Z" fill="#373435" transform="matrix(1.00181 0 0 1 622.113 335.454)"/><path d="M8.39075-15.481C7.82178-15.481 7.35598-15.3247 6.99021-15.0183 6.62132-14.7182 6.44-14.2805 6.44-13.7053 6.44-13.1363 6.60881-12.6799 6.9527-12.3298 7.29345-11.9796 7.73425-11.7077 8.27821-11.517 8.81904-11.3325 9.4224-11.1543 10.0914-10.9793 10.7667-10.8104 11.4326-10.6072 12.0922-10.3665 12.7581-10.1227 13.3614-9.82256 13.9054-9.46617 14.4556-9.11603 14.8995-8.60959 15.2434-7.95308 15.5842-7.30283 15.7561-6.52128 15.7561-5.61468 15.7561-4.02031 15.1059-2.65415 13.8054-1.51309 12.5111-0.378271 10.8042 0.187573 8.67836 0.187573 6.55879 0.187573 4.85188-0.318874 3.55138-1.33802 2.25712-2.36342 1.61313-3.81398 1.61313-5.68971L6.49002-5.68971C6.61507-4.18912 7.38411-3.43883 8.80341-3.43883 9.45992-3.43883 9.97887-3.60765 10.354-3.95153 10.7292-4.30167 10.9167-4.74246 10.9167-5.27705 10.9167-5.81788 10.7448-6.25868 10.404-6.60256 10.0695-6.94332 9.62873-7.20904 9.07852-7.40287 8.53456-7.60295 7.92807-7.78427 7.25281-7.95308 6.5838-8.12815 5.91792-8.34073 5.25204-8.59083 4.59241-8.84093 3.98905-9.13479 3.43883-9.47867 2.89487-9.82881 2.45408-10.329 2.11332-10.9793 1.77881-11.6358 1.61313-12.4111 1.61313-13.3052 1.61313-15.0621 2.26338-16.4689 3.56388-17.5193 4.87064-18.576 6.54004-19.1074 8.56582-19.1074 10.5979-19.1074 12.2422-18.6447 13.4927-17.7194 14.7495-16.8003 15.406-15.3497 15.456-13.3677L10.4666-13.3677C10.3915-14.0429 10.1696-14.5619 9.8038-14.9308 9.43491-15.2966 8.96598-15.481 8.39075-15.481Z" fill="#373435" transform="matrix(1.00181 0 0 1 657.853 335.454)"/><path d="M0.725281-15.356 0.725281-18.8323 15.5935-18.8323 15.5935-15.356 10.4415-15.356 10.4415 0 5.85227 0 5.85227-15.356Z" fill="#373435" transform="matrix(1.00181 0 0 1 679.404 335.454)"/><path d="M14.1805-5.52714C15.0871-6.50877 15.5435-7.82178 15.5435-9.46617 15.5435-11.1168 15.0871-12.4329 14.1805-13.4177 13.2801-14.3993 12.0703-14.8933 10.5541-14.8933 9.04413-14.8933 7.83429-14.3993 6.92769-13.4177 6.02734-12.4329 5.57716-11.1168 5.57716-9.46617 5.57716-7.82178 6.02734-6.50877 6.92769-5.52714 7.83429-4.54239 9.04413-4.05157 10.5541-4.05157 12.0703-4.05157 13.2801-4.54239 14.1805-5.52714ZM3.71394-2.55099C1.84447-4.3767 0.912854-6.68072 0.912854-9.46617 0.912854-12.2579 1.84447-14.5619 3.71394-16.3814 5.58029-18.1977 7.86868-19.1074 10.5791-19.1074 13.2958-19.1074 15.581-18.1977 17.4318-16.3814 19.2825-14.5619 20.2078-12.2579 20.2078-9.46617 20.2078-6.68072 19.2762-4.3767 17.4193-2.55099 15.5592-0.725281 13.2739 0.187573 10.5666 0.187573 7.86555 0.187573 5.58029-0.725281 3.71394-2.55099Z" fill="#373435" transform="matrix(1.00181 0 0 1 699.907 335.454)"/><path d="M3.71394-2.56349C1.84447-4.37982 0.912854-6.68072 0.912854-9.46617 0.912854-12.2579 1.84447-14.5619 3.71394-16.3814 5.58029-18.1977 7.86868-19.1074 10.5791-19.1074 12.6705-19.1074 14.5306-18.5509 16.1563-17.4443 17.7819-16.3345 18.9136-14.7964 19.5576-12.83L14.093-12.83C13.3739-14.2055 12.2297-14.8933 10.6541-14.8933 9.07852-14.8933 7.83429-14.3993 6.92769-13.4177 6.02734-12.4329 5.57716-11.1168 5.57716-9.46617 5.57716-7.82178 6.02734-6.50877 6.92769-5.52714 7.83429-4.54239 9.07852-4.05157 10.6541-4.05157 12.2297-4.05157 13.3739-4.73934 14.093-6.11487L19.5576-6.11487C18.9136-4.14536 17.7819-2.60726 16.1563-1.50058 14.5306-0.390776 12.6705 0.162563 10.5791 0.162563 7.86868 0.162563 5.58029-0.744039 3.71394-2.56349Z" fill="#373435" transform="matrix(1.00181 0 0 1 725.246 335.454)"/><path d="M6.60256 0 2.01328 0 2.01328-18.8323 6.60256-18.8323 6.60256-10.5791 12.83-18.8323 18.8323-18.8323 11.0793-9.41615 18.8323 0 12.93 0 6.60256-8.31572Z" fill="#373435" transform="matrix(1.00181 0 0 1 749.941 335.454)"/></g></svg>