<svg width="396" height="90" xmlns="http://www.w3.org/2000/svg" xmlns:xlink="http://www.w3.org/1999/xlink" xml:space="preserve" overflow="hidden"><g transform="translate(-432 -278)"><g><path d="M74.5943 190.777C78.1935 189.544 82.1151 191.463 83.3478 195.062 84.5856 198.662 82.6664 202.583 79.0621 203.816 75.4629 205.054 71.5413 203.135 70.3086 199.53 69.0759 195.931 70.9951 192.009 74.5943 190.777ZM90.7126 197.398C95.4352 195.78 100.574 198.298 102.197 203.02 103.814 207.743 101.297 212.881 96.5742 214.499 91.8516 216.122 86.7129 213.604 85.0954 208.882 83.4726 204.159 85.9899 199.015 90.7126 197.398ZM74.8076 244.187C76.2639 243.688 77.8554 244.463 78.3547 245.924 78.854 247.38 78.0791 248.967 76.6175 249.466 75.1612 249.965 73.5749 249.19 73.0756 247.734 72.5711 246.273 73.3512 244.686 74.8076 244.187ZM65.6484 241.446C67.2972 240.879 69.0915 241.758 69.6585 243.407 70.2254 245.055 69.3464 246.85 67.6976 247.417 66.0437 247.984 64.2493 247.105 63.6824 245.456 63.1207 243.802 63.9997 242.008 65.6484 241.441ZM57.181 234.83C59.043 234.19 61.0662 235.184 61.7008 237.041 62.3405 238.903 61.3523 240.926 59.4903 241.56 57.6283 242.2 55.6051 241.207 54.9705 239.35 54.3308 237.488 55.3242 235.465 57.181 234.83ZM52.9005 223.533C55.0902 222.784 57.4775 223.949 58.2264 226.139 58.9806 228.329 57.8103 230.716 55.6207 231.465 53.431 232.219 51.0489 231.049 50.2947 228.859 49.5458 226.67 50.7108 224.282 52.9005 223.533ZM53.2126 209.865C55.7507 208.991 58.5125 210.343 59.3811 212.881 60.2497 215.42 58.9026 218.181 56.3644 219.05 53.8263 219.919 51.0645 218.566 50.1959 216.028 49.3273 213.495 50.6796 210.733 53.2126 209.865ZM59.6463 197.351C62.5746 196.347 65.768 197.907 66.7718 200.841 67.7757 203.769 66.2153 206.963 63.2819 207.966 60.3537 208.97 57.1602 207.41 56.1564 204.476 55.1526 201.548 56.7129 198.355 59.6463 197.351Z" fill-rule="evenodd" transform="matrix(1.00201 0 0 1 389.974 110.028)"/></g><g><path d="M92.9854 237.425C89.3811 238.663 85.4646 236.744 84.232 233.14 82.9941 229.541 84.9133 225.619 88.5177 224.386 92.1169 223.154 96.0385 225.073 97.2712 228.672 98.5038 232.271 96.5846 236.193 92.9854 237.425ZM76.8672 230.804C72.1446 232.427 67.0059 229.91 65.3831 225.187 63.7656 220.465 66.2829 215.321 71.0055 213.703 75.7282 212.086 80.8669 214.603 82.4844 219.326 84.1071 224.048 81.5898 229.187 76.8672 230.804ZM92.7722 184.02C91.3159 184.52 89.7295 183.74 89.225 182.283 88.7257 180.827 89.5059 179.235 90.9622 178.736 92.4185 178.237 94.0101 179.017 94.5094 180.473 95.0087 181.93 94.2337 183.521 92.7722 184.02ZM101.931 186.761C100.283 187.328 98.4882 186.449 97.9213 184.801 97.3544 183.147 98.2334 181.352 99.8873 180.785 101.536 180.224 103.33 181.103 103.897 182.751 104.464 184.4 103.58 186.195 101.931 186.761ZM110.399 193.377C108.537 194.017 106.514 193.024 105.879 191.162 105.239 189.305 106.233 187.282 108.089 186.642 109.951 186.007 111.975 186.995 112.614 188.857 113.249 190.714 112.261 192.743 110.399 193.377ZM114.679 204.674C112.49 205.423 110.102 204.258 109.353 202.063 108.599 199.873 109.769 197.491 111.959 196.742 114.149 195.988 116.531 197.158 117.285 199.348 118.034 201.538 116.869 203.925 114.679 204.674ZM114.367 218.343C111.829 219.211 109.067 217.864 108.199 215.326 107.33 212.788 108.682 210.026 111.215 209.157 113.753 208.289 116.515 209.641 117.384 212.174 118.252 214.712 116.905 217.474 114.367 218.343ZM107.933 230.856C105.005 231.86 101.812 230.3 100.808 227.367 99.8041 224.433 101.364 221.245 104.298 220.241 107.226 219.237 110.42 220.798 111.423 223.731 112.427 226.659 110.867 229.853 107.933 230.856Z" fill="#A3C7F7" fill-rule="evenodd" transform="matrix(1.00201 0 0 1 389.974 110.028)"/></g><path d="M3.34951-31.3315 10.9847-31.3315 10.9847-5.80444 20.4924-5.80444 20.4924 0 3.34951 0Z" fill="#A3C7F7" transform="matrix(1.00201 0 0 1 520.739 345.172)"/><path d="M3.34951 0 3.34951-31.3315 10.9847-31.3315 10.9847 0Z" fill="#A3C7F7" transform="matrix(1.00201 0 0 1 545.11 345.172)"/><path d="M23.7587-31.4355 31.3939-31.4355 31.3939 0 23.7587 0 10.9847-19.785 10.9847 0 3.34951 0 3.34951-31.4355 10.9847-31.4355 23.7587-11.6505Z" fill="#A3C7F7" transform="matrix(1.00201 0 0 1 562.416 345.172)"/><path d="M10.9847 0 3.34951 0 3.34951-31.3315 10.9847-31.3315 10.9847-17.6006 21.3454-31.3315 31.3315-31.3315 18.4327-15.6657 31.3315 0 21.5118 0 10.9847-13.835Z" fill="#A3C7F7" transform="matrix(1.00201 0 0 1 600.156 345.172)"/><path d="M13.9598-25.7559C13.0132-25.7559 12.2382-25.4958 11.6297-24.9861 11.016-24.4868 10.7143-23.7587 10.7143-22.8017 10.7143-21.8551 10.9951-21.0957 11.5673-20.5132 12.1342-19.9307 12.8675-19.4782 13.7725-19.1609 14.6723-18.854 15.6761-18.5576 16.7892-18.2663 17.9126-17.9854 19.0205-17.6474 20.1179-17.2469 21.2257-16.8412 22.2295-16.3419 23.1345-15.749 24.0499-15.1664 24.7885-14.3239 25.3606-13.2316 25.9275-12.1498 26.2136-10.8495 26.2136-9.34119 26.2136-6.68863 25.1318-4.41574 22.9681-2.51734 20.8148-0.629334 17.975 0.312067 14.4383 0.312067 10.9119 0.312067 8.07212-0.530514 5.90846-2.22607 3.7552-3.93204 2.68377-6.34535 2.68377-9.46602L10.7975-9.46602C11.0055-6.96949 12.285-5.72122 14.6463-5.72122 15.7386-5.72122 16.6019-6.00208 17.2261-6.5742 17.8502-7.15673 18.1623-7.89008 18.1623-8.77947 18.1623-9.67926 17.8762-10.4126 17.3093-10.9847 16.7528-11.5517 16.0194-11.9938 15.104-12.3162 14.199-12.6491 13.19-12.9508 12.0666-13.2316 10.9535-13.5229 9.8457-13.8766 8.73786-14.2926 7.64043-14.7087 6.63662-15.1976 5.72122-15.7698 4.81623-16.3523 4.08287-17.1845 3.51595-18.2663 2.95943-19.3585 2.68377-20.6484 2.68377-22.1359 2.68377-25.0589 3.7656-27.3994 5.92927-29.147 8.10333-30.905 10.8807-31.7892 14.251-31.7892 17.6318-31.7892 20.3675-31.0194 22.448-29.4799 24.5388-27.9508 25.6311-25.5374 25.7143-22.2399L17.4133-22.2399C17.2885-23.3634 16.9192-24.2268 16.3107-24.8405 15.6969-25.449 14.9168-25.7559 13.9598-25.7559Z" fill="#A3C7F7" transform="matrix(1.00201 0 0 1 651.671 345.172)"/><path d="M1.20666-25.5479 1.20666-31.3315 25.9431-31.3315 25.9431-25.5479 17.3717-25.5479 17.3717 0 9.73648 0 9.73648-25.5479Z" fill="#A3C7F7" transform="matrix(1.00201 0 0 1 683.554 345.172)"/><path d="M23.5922-9.19556C25.1006-10.8287 25.8599-13.0132 25.8599-15.749 25.8599-18.4951 25.1006-20.6848 23.5922-22.3232 22.0943-23.9563 20.0815-24.7781 17.5589-24.7781 15.0468-24.7781 13.034-23.9563 11.5257-22.3232 10.0277-20.6848 9.27878-18.4951 9.27878-15.749 9.27878-13.0132 10.0277-10.8287 11.5257-9.19556 13.034-7.55721 15.0468-6.74064 17.5589-6.74064 20.0815-6.74064 22.0943-7.55721 23.5922-9.19556ZM6.17892-4.24411C3.06866-7.28155 1.51872-11.1148 1.51872-15.749 1.51872-20.3936 3.06866-24.2268 6.17892-27.2538 9.28398-30.2757 13.0912-31.7892 17.6006-31.7892 22.1203-31.7892 25.9223-30.2757 29.0014-27.2538 32.0804-24.2268 33.62-20.3936 33.62-15.749 33.62-11.1148 32.07-7.28155 28.9806-4.24411 25.8859-1.20666 22.0839 0.312067 17.5798 0.312067 13.086 0.312067 9.28398-1.20666 6.17892-4.24411Z" fill="#A3C7F7" transform="matrix(1.00201 0 0 1 713.693 345.172)"/><path d="M6.17892-4.26491C3.06866-7.28675 1.51872-11.1148 1.51872-15.749 1.51872-20.3936 3.06866-24.2268 6.17892-27.2538 9.28398-30.2757 13.0912-31.7892 17.6006-31.7892 21.0801-31.7892 24.1748-30.8634 26.8793-29.0222 29.5839-27.1758 31.4667-24.6169 32.5381-21.3454L23.4466-21.3454C22.2503-23.6338 20.3467-24.7781 17.7254-24.7781 15.104-24.7781 13.034-23.9563 11.5257-22.3232 10.0277-20.6848 9.27878-18.4951 9.27878-15.749 9.27878-13.0132 10.0277-10.8287 11.5257-9.19556 13.034-7.55721 15.104-6.74064 17.7254-6.74064 20.3467-6.74064 22.2503-7.88488 23.4466-10.1734L32.5381-10.1734C31.4667-6.89667 29.5839-4.33772 26.8793-2.49653 24.1748-0.650138 21.0801 0.270458 17.6006 0.270458 13.0912 0.270458 9.28398-1.23786 6.17892-4.26491Z" fill="#A3C7F7" transform="matrix(1.00201 0 0 1 751.881 345.172)"/><path d="M10.9847 0 3.34951 0 3.34951-31.3315 10.9847-31.3315 10.9847-17.6006 21.3454-31.3315 31.3315-31.3315 18.4327-15.6657 31.3315 0 21.5118 0 10.9847-13.835Z" fill="#A3C7F7" transform="matrix(1.00201 0 0 1 788.996 345.172)"/></g></svg>