<svg width="500" height="500" viewBox="0 0 500 500" fill="none" xmlns="http://www.w3.org/2000/svg">
<path fill-rule="evenodd" clip-rule="evenodd" d="M213.328 286.24C213.328 281.66 209.608 277.941 205.028 277.941H86.4527C81.8713 277.941 78.1517 281.66 78.1517 286.24V352.042C78.1517 356.623 81.8713 360.342 86.4527 360.342H205.028C209.608 360.342 213.328 356.623 213.328 352.042V286.24Z" fill="#8ABBB8"/>
<path fill-rule="evenodd" clip-rule="evenodd" d="M101.602 344.289H87.6521V354.151H101.602V344.289ZM152.098 325.859H87.6199V339.852H152.098V325.859ZM203.417 325.859H170.321V339.852H203.417V325.859Z" fill="white"/>
<path d="M213.328 300.918H78.1517V320.278H213.328V300.918Z" fill="black"/>
<path fill-rule="evenodd" clip-rule="evenodd" d="M99.3909 334.531C99.3369 333.643 99.4369 332.662 99.6345 331.747C99.9405 330.332 100.493 329.084 101.008 328.531C101.454 328.054 101.941 327.955 102.347 328.092C102.928 328.288 103.271 328.808 103.335 329.547C103.426 330.607 102.883 332.214 102.682 332.673C102.217 333.734 101.626 334.529 100.946 335.155C101.043 335.614 101.209 336.007 101.519 336.242C101.849 336.491 102.321 336.511 102.963 336.324C103.303 336.225 104.003 335.786 104.683 335.244C104.569 334.56 104.689 333.83 104.958 333.286C105.371 332.45 106.104 332.08 106.784 332.309C107.246 332.464 107.497 332.731 107.627 333.021C107.796 333.399 107.763 333.905 107.445 334.45C107.233 334.816 106.878 335.228 106.458 335.63C106.667 335.799 106.975 335.881 107.39 335.874C107.904 335.865 108.684 335.469 109.541 335.016C111.065 334.21 112.764 333.171 113.759 332.902C114.622 332.667 115.175 332.951 115.403 333.44C115.582 333.82 115.749 334.097 115.921 334.28C116.004 334.369 116.076 334.432 116.159 334.448C116.271 334.468 116.379 334.415 116.496 334.36C116.648 334.287 116.803 334.19 116.965 334.082C118.087 333.337 119.443 332.296 121.294 332.925C122.058 333.185 122.266 333.892 122.132 334.765C122.094 335.014 122.033 335.275 121.995 335.517C121.989 335.555 121.984 335.601 121.981 335.645C122.071 335.64 122.17 335.623 122.275 335.603C122.559 335.552 122.872 335.462 123.189 335.363C123.939 335.133 124.707 334.875 125.232 334.842C130.803 334.479 136.411 334.573 141.976 334.097C142.378 334.062 142.733 334.362 142.768 334.765C142.802 335.167 142.503 335.521 142.101 335.555C136.526 336.033 130.908 335.94 125.327 336.302C124.785 336.337 123.949 336.679 123.189 336.89C122.501 337.082 121.858 337.162 121.418 337.049C120.64 336.846 120.407 336.159 120.554 335.253C120.589 335.043 120.639 334.82 120.675 334.604C120.691 334.507 120.699 334.366 120.702 334.274C120.03 334.086 119.466 334.265 118.971 334.529C118.534 334.763 118.141 335.059 117.775 335.303C117.109 335.744 116.48 335.996 115.89 335.887C115.355 335.786 114.758 335.387 114.2 334.309C114.103 334.331 113.977 334.364 113.873 334.402C113.527 334.532 113.12 334.734 112.68 334.966C111.226 335.735 109.451 336.822 108.256 337.186C107.943 337.283 107.659 337.333 107.418 337.338C106.436 337.356 105.77 337.038 105.332 336.582C104.545 337.171 103.761 337.618 103.37 337.73C102.149 338.085 101.265 337.883 100.638 337.411C100.22 337.096 99.9063 336.641 99.6973 336.084C99.4896 336.211 99.2767 336.33 99.0597 336.441C97.7145 337.133 96.1927 337.569 94.7075 338.315C94.3466 338.497 93.9063 338.35 93.7249 337.99C93.5436 337.627 93.6894 337.188 94.0505 337.007C95.2493 336.405 96.4713 336.002 97.6073 335.508C98.2377 335.233 98.8408 334.93 99.3909 334.531ZM101.882 329.798C101.679 330.125 101.487 330.577 101.323 331.092C101.225 331.395 101.138 331.721 101.066 332.056C101.007 332.331 100.957 332.611 100.919 332.893C101.071 332.647 101.212 332.378 101.342 332.084C101.478 331.772 101.826 330.793 101.877 329.992C101.881 329.926 101.883 329.86 101.882 329.798Z" fill="black"/>
<path d="M449.823 250.723H247.841V360.216H449.823V250.723Z" fill="#E4E4E6"/>
<path fill-rule="evenodd" clip-rule="evenodd" d="M386.469 347.935C387.215 345.206 388.409 342.47 390.064 340.181C390.395 339.724 390.952 338.837 391.593 338.253C392.191 337.708 392.87 337.427 393.526 337.572C394.283 337.738 394.673 338.292 394.755 339.079C394.875 340.245 394.138 342.069 393.852 342.584C392.453 345.115 390.171 347.174 387.747 348.837C387.642 349.285 387.572 349.751 387.604 350.183C387.645 350.734 387.888 351.213 388.564 351.402C389.946 351.785 391.48 351.387 392.946 350.651C393.509 350.368 394.06 350.036 394.589 349.67C394.601 349.441 394.624 349.23 394.646 349.061C394.95 346.639 396.322 344.365 397.971 342.613C398.23 342.338 399.085 341.362 399.784 341.071C400.383 340.822 400.922 340.908 401.315 341.41C401.679 341.875 401.765 342.533 401.593 343.269C401.304 344.508 400.272 346.032 399.842 346.624C398.982 347.808 397.635 349.213 396.07 350.401C396.082 350.478 396.102 350.552 396.129 350.617C396.145 350.655 396.154 350.697 396.193 350.711C396.857 350.962 397.575 350.684 398.278 350.269C399.596 349.491 400.831 348.155 401.604 347.441C401.94 347.131 402.492 346.553 403.074 346.203C403.636 345.864 404.231 345.738 404.76 345.925C405.408 346.155 405.649 346.602 405.651 347.185C405.651 347.524 405.53 347.947 405.351 348.395C405.191 348.793 404.985 349.219 404.867 349.617C404.828 349.745 404.798 349.866 404.793 349.981C404.788 350.061 404.819 350.125 404.911 350.162C405.324 350.325 405.681 350.216 406.012 349.997C406.49 349.679 406.92 349.166 407.348 348.649C407.971 347.896 408.591 347.133 409.255 346.701C409.84 346.322 410.46 346.168 411.138 346.335C412.107 346.577 412.288 347.382 412.032 348.447C411.952 348.788 411.832 349.16 411.777 349.508C411.745 349.716 411.671 349.93 411.879 350.023C412.2 350.165 412.504 350.098 412.801 349.965C413.083 349.839 413.361 349.652 413.638 349.457C414.148 349.099 414.654 348.709 415.17 348.459C415.603 348.248 416.046 348.126 416.498 348.141C416.883 348.153 417.135 348.275 417.311 348.42C417.527 348.599 417.653 348.836 417.702 349.122C417.73 349.272 417.731 349.443 417.718 349.622C417.712 349.716 417.706 349.863 417.701 349.968C419.196 350.163 420.867 349.695 422.361 349.596C424.906 349.425 427.477 349.575 430.011 349.347C430.414 349.31 430.77 349.607 430.805 350.01C430.842 350.413 430.545 350.769 430.142 350.806C427.597 351.036 425.015 350.885 422.459 351.056C420.834 351.165 419.008 351.646 417.391 351.403C417.02 351.349 416.776 351.205 416.605 351.037C416.411 350.847 416.3 350.612 416.253 350.344C416.221 350.16 416.225 349.954 416.239 349.748C416.242 349.711 416.245 349.665 416.249 349.619C415.961 349.666 415.685 349.828 415.405 350.007C414.924 350.315 414.45 350.7 413.965 350.997C413.111 351.523 412.227 351.779 411.284 351.36C410.604 351.058 410.339 350.547 410.296 349.932C410.265 349.513 410.369 349.024 410.494 348.551C410.551 348.332 410.612 348.118 410.65 347.92C410.66 347.867 410.668 347.796 410.671 347.736C410.361 347.706 410.089 347.879 409.819 348.102C409.356 348.486 408.923 349.043 408.476 349.582C407.95 350.218 407.407 350.828 406.821 351.218C406.087 351.704 405.287 351.884 404.376 351.525C403.555 351.202 403.298 350.622 403.33 349.92C403.35 349.457 403.547 348.908 403.772 348.371C403.881 348.114 403.994 347.858 404.079 347.62C404.112 347.526 404.143 347.398 404.162 347.302C404.114 347.313 404.065 347.337 404.015 347.359C403.881 347.417 403.748 347.503 403.62 347.597C403.21 347.898 402.839 348.292 402.596 348.518C401.769 349.281 400.433 350.695 399.022 351.529C397.904 352.191 396.733 352.482 395.675 352.081C395.277 351.93 394.996 351.643 394.819 351.271C394.421 351.521 394.015 351.753 393.604 351.959C391.789 352.87 389.88 353.287 388.172 352.812C386.605 352.376 386.118 351.186 386.142 349.874C385.979 349.973 385.817 350.069 385.656 350.165C384.605 350.785 383.461 351.561 382.283 351.929C382.293 351.926 382.323 351.914 382.323 351.914C382.323 351.914 382.136 351.978 382.05 351.986C381.919 352.001 381.807 351.982 381.722 351.953C381.556 351.897 381.435 351.798 381.349 351.676C381.115 351.347 381.194 350.89 381.523 350.657C381.627 350.584 381.743 350.54 381.86 350.526C382.929 350.19 383.956 349.467 384.911 348.904C385.431 348.599 385.952 348.276 386.469 347.935ZM382.51 350.786L382.52 350.799L382.518 350.796L382.51 350.786ZM382.483 350.756L382.494 350.767L382.491 350.764L382.483 350.756ZM382.456 350.729L382.467 350.738L382.462 350.734L382.456 350.729ZM382.429 350.703L382.433 350.708L382.43 350.705L382.429 350.703ZM400.217 342.515C400.078 342.606 399.885 342.739 399.765 342.851C399.439 343.154 399.161 343.485 399.038 343.616C397.8 344.932 396.72 346.572 396.268 348.35C397.242 347.486 398.073 346.569 398.656 345.765C398.974 345.326 399.687 344.306 400.04 343.352C400.136 343.089 400.208 342.833 400.216 342.603C400.217 342.573 400.219 342.544 400.217 342.515ZM388.447 346.511C390.098 345.203 391.579 343.672 392.571 341.876C392.762 341.533 393.229 340.443 393.298 339.566C393.309 339.427 393.309 339.296 393.291 339.178C393.28 339.101 393.287 339.018 393.211 339.002C393.116 338.98 393.025 339.023 392.933 339.072C392.812 339.138 392.695 339.23 392.58 339.334C392.018 339.849 391.542 340.638 391.251 341.039C390.062 342.681 389.133 344.57 388.447 346.511Z" fill="black"/>
<path fill-rule="evenodd" clip-rule="evenodd" d="M360.596 325.493V323.75C360.596 323.083 361.088 322.542 361.694 322.542C362.3 322.542 362.792 323.083 362.792 323.75V326.564C362.792 327.23 362.3 327.771 361.694 327.771H361.692C361.54 327.86 361.366 327.908 361.182 327.908H265.761C265.569 327.908 265.387 327.854 265.23 327.759C264.626 327.755 264.137 327.216 264.137 326.552V323.75C264.137 323.083 264.63 322.542 265.235 322.542C265.841 322.542 266.334 323.083 266.334 323.75V325.493H360.596ZM398.491 299.33V297.062C398.491 296.396 398.984 295.854 399.589 295.854C400.195 295.854 400.687 296.396 400.687 297.062V299.876C400.687 300.138 400.612 300.379 400.484 300.576C400.464 301.225 399.981 301.746 399.386 301.746H265.314C265.301 301.746 265.288 301.746 265.276 301.746C265.261 301.746 265.248 301.746 265.235 301.746C264.63 301.746 264.137 301.204 264.137 300.538V297.736C264.137 297.07 264.63 296.528 265.235 296.528C265.841 296.528 266.334 297.07 266.334 297.736V299.33H398.491ZM264.6 276.371L264.679 273.559C264.699 272.892 265.206 272.369 265.812 272.389C266.418 272.411 266.894 272.969 266.875 273.633L266.831 275.203H398.751V273.597C398.751 272.93 399.243 272.389 399.849 272.389C400.455 272.389 400.947 272.93 400.947 273.597V276.411C400.947 277.077 400.455 277.619 399.849 277.619C399.836 277.619 399.822 277.619 399.809 277.619C399.796 277.619 399.783 277.619 399.771 277.619H265.702C265.697 277.619 265.689 277.619 265.684 277.619H265.678C265.569 277.617 265.464 277.597 265.365 277.562C265.193 277.502 265.04 277.397 264.917 277.26L264.911 277.254L264.906 277.248L264.902 277.244C264.782 277.103 264.69 276.932 264.641 276.741C264.613 276.632 264.599 276.516 264.6 276.397V276.389C264.6 276.383 264.6 276.377 264.6 276.371Z" fill="white"/>
<path fill-rule="evenodd" clip-rule="evenodd" d="M429.86 329.079V322.54C429.86 321.934 430.352 321.442 430.958 321.442C431.564 321.442 432.056 321.934 432.056 322.54V330.177C432.056 330.785 431.566 331.275 430.958 331.275H376.529C375.922 331.275 375.431 330.785 375.431 330.177V322.54C375.431 321.934 375.923 321.442 376.529 321.442C377.135 321.442 377.627 321.934 377.627 322.54V329.079H429.86Z" fill="white"/>
<path fill-rule="evenodd" clip-rule="evenodd" d="M377.627 314.671V322.539C377.627 323.145 377.135 323.637 376.529 323.637C375.923 323.637 375.431 323.145 375.431 322.539V313.573C375.431 312.968 375.922 312.475 376.529 312.475H430.958C431.566 312.475 432.056 312.968 432.056 313.573V322.539C432.056 323.145 431.564 323.637 430.958 323.637C430.352 323.637 429.86 323.145 429.86 322.539V314.671H377.627Z" fill="white"/>
<path fill-rule="evenodd" clip-rule="evenodd" d="M381.572 326.741H387.163C387.769 326.741 388.261 326.249 388.261 325.643C388.261 325.037 387.769 324.545 387.163 324.545H381.572C380.966 324.545 380.474 325.037 380.474 325.643C380.474 326.249 380.966 326.741 381.572 326.741ZM400.948 326.741H406.537C407.143 326.741 407.636 326.249 407.636 325.643C407.636 325.037 407.143 324.545 406.537 324.545H400.948C400.342 324.545 399.85 325.037 399.85 325.643C399.85 326.249 400.342 326.741 400.948 326.741ZM391.259 326.741H396.85C397.456 326.741 397.948 326.249 397.948 325.643C397.948 325.037 397.456 324.545 396.85 324.545H391.259C390.653 324.545 390.161 325.037 390.161 325.643C390.161 326.249 390.653 326.741 391.259 326.741ZM410.635 326.741H416.226C416.832 326.741 417.324 326.249 417.324 325.643C417.324 325.037 416.832 324.545 416.226 324.545H410.635C410.029 324.545 409.537 325.037 409.537 325.643C409.537 326.249 410.029 326.741 410.635 326.741ZM420.324 326.741H425.913C426.519 326.741 427.011 326.249 427.011 325.643C427.011 325.037 426.519 324.545 425.913 324.545H420.324C419.718 324.545 419.226 325.037 419.226 325.643C419.226 326.249 419.718 326.741 420.324 326.741Z" fill="white"/>
<path d="M424.459 289.155C432.958 289.155 439.848 282.264 439.848 273.765C439.848 265.265 432.958 258.375 424.459 258.375C415.959 258.375 409.069 265.265 409.069 273.765C409.069 282.264 415.959 289.155 424.459 289.155Z" fill="white"/>
<path fill-rule="evenodd" clip-rule="evenodd" d="M423.946 265.522L424.051 258.381C424.186 258.377 424.322 258.375 424.457 258.375C424.814 258.375 425.165 258.388 425.515 258.412L425.411 265.54C426.721 265.524 428.086 265.416 429.49 265.187C428.568 262.522 427.438 260.227 426.474 258.507C427.105 258.589 427.728 258.71 428.333 258.868C429.212 260.538 430.154 262.594 430.943 264.909C432.521 264.559 434.14 264.052 435.78 263.346C436.124 263.719 436.45 264.111 436.756 264.517C434.938 265.332 433.141 265.914 431.39 266.307C431.498 266.67 431.6 267.036 431.697 267.409C432.23 269.424 432.607 271.582 432.717 273.816L439.845 274.029C439.838 274.523 439.805 275.01 439.752 275.491L432.748 275.282C432.733 277.769 432.365 280.332 431.49 282.887C432.832 283.265 434.195 283.765 435.572 284.407C435.206 284.788 434.821 285.15 434.419 285.493C433.257 284.98 432.105 284.576 430.969 284.259C430.363 285.716 429.582 287.165 428.599 288.589C427.901 288.785 427.184 288.932 426.45 289.027C427.773 287.35 428.778 285.634 429.519 283.902C428.019 283.58 426.554 283.408 425.145 283.351L425.059 289.142C424.86 289.149 424.658 289.155 424.457 289.155C424.168 289.155 423.881 289.146 423.595 289.131L423.681 283.333C421.924 283.359 420.27 283.553 418.756 283.842C419.561 285.5 420.608 287.204 421.941 288.948C421.188 288.825 420.456 288.646 419.746 288.417C418.749 286.97 417.936 285.549 417.285 284.162C416.099 284.45 415.023 284.786 414.082 285.127C413.688 284.766 413.313 284.387 412.96 283.988C414.027 283.58 415.284 283.163 416.697 282.81C415.645 280.191 415.158 277.698 415.067 275.366C415.059 275.161 415.054 274.958 415.052 274.757L409.089 274.579C409.076 274.31 409.069 274.038 409.069 273.765C409.069 273.547 409.073 273.331 409.082 273.115L415.09 273.293C415.257 270.559 415.952 268.077 416.878 265.906C414.968 265.398 413.407 264.801 412.308 264.323C412.621 263.919 412.956 263.533 413.308 263.161C414.366 263.602 415.791 264.122 417.499 264.563C418.738 262.076 420.231 260.075 421.443 258.67C422.171 258.525 422.918 258.432 423.679 258.394C422.519 259.569 420.539 261.821 418.954 264.903C420.462 265.216 422.142 265.452 423.946 265.522ZM431.278 275.238L425.268 275.061L425.167 281.891C426.739 281.951 428.375 282.147 430.054 282.522C430.907 280.075 431.265 277.619 431.278 275.238ZM416.518 274.801C416.52 274.969 416.523 275.139 416.531 275.31C416.617 277.557 417.103 279.956 418.145 282.48C419.838 282.136 421.708 281.902 423.703 281.874L423.806 275.017L416.518 274.801ZM429.946 266.593C428.375 266.862 426.849 266.984 425.389 267.001L425.29 273.597L431.243 273.772C431.135 271.682 430.778 269.665 430.282 267.78C430.176 267.38 430.065 266.982 429.946 266.593ZM418.31 266.254C417.404 268.324 416.719 270.707 416.554 273.337L423.827 273.553L423.924 266.979C421.88 266.902 419.99 266.622 418.31 266.254Z" fill="#E4E4E6"/>
<path fill-rule="evenodd" clip-rule="evenodd" d="M291.992 328.428C292.45 337.546 293.91 345.304 296.37 352.464C297.979 357.195 302.42 360.376 307.417 360.376C307.417 360.381 307.417 360.381 307.417 360.381C311.626 360.381 315.422 357.848 317.036 353.961C319.831 347.246 322.186 338.999 323.872 328.428H291.992Z" fill="#F27F71"/>
<path fill-rule="evenodd" clip-rule="evenodd" d="M292.288 332.719C292.257 332.365 292.228 332.01 292.198 331.652L300.489 331.805C300.489 331.805 302.39 338.147 304.133 343.78C306.457 351.289 308.675 356.278 313.481 358.434C313.024 358.762 312.539 359.053 312.034 359.302C310.491 359.865 308.582 360.381 307.416 360.381C307.416 360.381 307.416 360.381 307.416 360.376C307.385 360.376 307.352 360.376 307.321 360.376C307.138 360.374 306.957 360.369 306.775 360.36L306.717 360.356C306.64 360.35 306.561 360.347 306.484 360.339L306.428 360.336L306.371 360.33L306.312 360.325C306.294 360.323 306.276 360.321 306.256 360.319L306.225 360.316C306.157 360.31 306.091 360.301 306.023 360.294C305.987 360.29 305.95 360.284 305.913 360.281L305.855 360.273C305.762 360.259 305.666 360.246 305.573 360.231L305.516 360.222C305.498 360.219 305.478 360.215 305.46 360.211L305.403 360.202C305.385 360.198 305.366 360.197 305.346 360.193L305.293 360.182C305.231 360.171 305.169 360.16 305.106 360.147C304.801 360.085 304.499 360.012 304.202 359.926C304.103 359.898 304.006 359.869 303.908 359.838C303.78 359.798 303.651 359.754 303.525 359.71C303.478 359.693 303.43 359.675 303.382 359.659L303.276 359.618C302.54 359.338 301.838 358.987 301.177 358.57L301.084 358.509C301.047 358.485 301.01 358.462 300.976 358.438L300.897 358.385L300.804 358.323L300.774 358.302C300.463 358.086 300.163 357.858 299.876 357.612C299.775 357.528 299.676 357.442 299.579 357.354L299.497 357.278L299.415 357.202C299.387 357.177 299.362 357.151 299.334 357.126L299.266 357.06C298.893 356.696 298.543 356.306 298.221 355.894C298.055 355.68 297.894 355.46 297.742 355.235C297.694 355.162 297.647 355.09 297.599 355.017C297.54 354.926 297.484 354.832 297.427 354.739L297.409 354.71L297.39 354.679C297.26 354.461 297.138 354.238 297.021 354.011L296.995 353.959L296.977 353.921C296.821 353.608 296.678 353.288 296.549 352.958L296.528 352.903C296.499 352.827 296.47 352.75 296.442 352.673C296.417 352.603 296.393 352.534 296.369 352.464L296.314 352.305L296.298 352.254L296.261 352.148L296.239 352.085L296.206 351.987L296.184 351.922L296.153 351.827L296.131 351.761L296.098 351.664L296.078 351.6L296.045 351.498L296.025 351.441L295.985 351.313L295.974 351.282L295.921 351.121L295.908 351.077L295.87 350.962L295.851 350.901L295.818 350.801L295.798 350.735L295.767 350.638L295.747 350.572L295.716 350.475L295.696 350.409L295.665 350.308L295.646 350.248L295.61 350.133L295.595 350.087L295.547 349.924L295.536 349.893L295.498 349.763L295.48 349.704L295.449 349.6L295.43 349.536L295.399 349.437L295.381 349.369L295.352 349.272L295.331 349.207L295.302 349.106L295.284 349.042L295.253 348.934L295.236 348.879L295.191 348.72L295.189 348.716L295.143 348.551L295.128 348.498L295.095 348.388L295.079 348.324L295.05 348.224L295.031 348.156L295.004 348.057L294.986 347.989L294.958 347.891L294.94 347.825L294.911 347.719L294.896 347.658L294.859 347.528L294.85 347.493L294.806 347.329L294.793 347.281L294.762 347.162L294.746 347.1L294.718 346.996L294.7 346.928L294.674 346.829L294.658 346.76L294.632 346.661L294.614 346.593L294.588 346.489L294.572 346.425L294.541 346.308L294.53 346.258L294.488 346.09L294.479 346.057L294.446 345.923L294.431 345.863L294.405 345.755L294.389 345.687L294.363 345.586L294.347 345.515L294.323 345.416L294.307 345.345L294.281 345.244L294.266 345.177L294.241 345.065L294.226 345.006L294.189 344.851L294.186 344.836L294.147 344.668L294.135 344.609L294.109 344.499L294.094 344.43L294.071 344.327L294.054 344.256L294.032 344.155L294.016 344.084L293.994 343.983L293.979 343.912L293.955 343.806L293.941 343.74L293.913 343.614L293.904 343.568L293.867 343.399L293.856 343.345L293.831 343.227L293.816 343.158L293.796 343.054L293.78 342.98L293.759 342.88L293.745 342.805L293.725 342.706L293.708 342.631L293.688 342.53L293.673 342.457L293.651 342.345L293.639 342.283L293.606 342.113L293.596 342.063L293.573 341.939L293.558 341.868L293.538 341.763L293.523 341.686L293.505 341.589L293.49 341.509L293.472 341.412L293.457 341.333L293.439 341.234L293.424 341.157L293.406 341.055L293.393 340.98L293.37 340.852L293.36 340.806L293.355 340.771L293.331 340.634L293.316 340.557L293.3 340.457L293.285 340.374L293.269 340.279L293.254 340.195L293.238 340.101L293.223 340.017L293.208 339.924L293.194 339.838L293.177 339.745L293.165 339.66L293.148 339.558L293.135 339.481L293.108 339.311L293.093 339.227L293.079 339.131L293.064 339.042L293.051 338.952L293.036 338.861L293.022 338.773L293.009 338.681L292.994 338.593L292.98 338.5L292.967 338.414L292.952 338.319L292.941 338.235L292.927 338.138L292.916 338.061L292.901 337.966L292.886 337.867L292.875 337.788L292.861 337.687L292.85 337.607L292.835 337.506L292.824 337.426L292.81 337.325L292.8 337.245L292.786 337.142L292.775 337.065L292.76 336.959L292.751 336.888L292.736 336.776L292.731 336.728L292.713 336.6L292.694 336.45L292.691 336.426L292.676 336.306L292.667 336.243L292.654 336.128L292.645 336.06L292.63 335.945L292.623 335.877L292.608 335.762L292.601 335.696L292.586 335.577L292.579 335.519L292.564 335.391L292.561 335.36L292.542 335.213C292.537 335.155 292.53 335.096 292.524 335.037L292.506 334.887L292.504 334.858L292.487 334.723L292.484 334.673L292.469 334.541L292.464 334.49L292.449 334.358L292.443 334.307L292.429 334.172L292.425 334.13L292.411 333.985L292.409 333.97C292.385 333.742 292.363 333.515 292.341 333.284L292.339 333.268L292.325 333.112L292.321 333.081L292.308 332.929L292.304 332.898L292.292 332.742L292.288 332.719Z" fill="#FFC2BA"/>
<path fill-rule="evenodd" clip-rule="evenodd" d="M192.707 328.65C193.165 337.767 194.625 345.525 197.085 352.685C198.693 357.416 203.135 360.597 208.132 360.597C208.132 360.602 208.132 360.602 208.132 360.602C212.341 360.602 216.137 358.069 217.751 354.182C220.546 347.467 222.901 339.221 224.587 328.65H192.707Z" fill="#FFC3BB"/>
<path fill-rule="evenodd" clip-rule="evenodd" d="M192.773 329.846C192.749 329.449 192.727 329.052 192.707 328.65H224.587C224.433 329.609 224.275 330.546 224.113 331.466L218.902 331.38C217.938 334.471 212.099 353.141 209.232 356.142C206.883 358.598 205.663 359.415 204.451 360.002C201.087 358.884 198.34 356.265 197.123 352.797L197.121 352.793L197.107 352.747L197.085 352.685C196.721 351.625 196.378 350.551 196.058 349.462C196.014 349.316 195.972 349.169 195.93 349.021C195.813 348.618 195.701 348.212 195.59 347.802C195.568 347.716 195.544 347.63 195.52 347.542C195.392 347.057 195.266 346.567 195.145 346.073C195.042 345.655 194.942 345.234 194.846 344.812C194.711 344.224 194.583 343.631 194.46 343.031C194.374 342.612 194.292 342.187 194.211 341.761C194.178 341.58 194.144 341.398 194.111 341.215L194.078 341.029C194.03 340.763 193.983 340.496 193.939 340.227C193.856 339.742 193.778 339.252 193.703 338.758L193.673 338.565C193.622 338.232 193.575 337.896 193.527 337.557L193.507 337.407L193.501 337.363C193.337 336.146 193.192 334.907 193.069 333.64L193.051 333.437L193.047 333.404C193.013 333.029 192.978 332.652 192.947 332.271C192.881 331.473 192.822 330.666 192.773 329.846Z" fill="#F27F71"/>
<path fill-rule="evenodd" clip-rule="evenodd" d="M345.025 243.259C346.383 242.878 347.5 242.532 347.778 242.359C351.043 240.326 353.799 236.971 355.261 233.164C356.674 229.489 357.027 225.412 355.312 221.804C353.255 224.764 349.992 226.774 347.018 227.009C343.706 227.27 340.521 225.65 338.922 220.963C337.037 215.439 340.708 211.04 346.193 209.938C348.292 209.516 350.695 209.642 353.08 210.494C352.933 209.071 352.58 207.678 352.062 206.338C350.697 202.805 348.27 199.617 345.388 197.152C344.65 196.558 344.535 195.477 345.128 194.74C345.721 194.003 346.802 193.887 347.54 194.481C351.059 197.148 354.068 200.711 355.898 204.724C357.115 207.394 357.785 210.264 357.748 213.23C359.271 214.533 360.68 216.236 361.874 218.393C364.862 223.797 364.91 230.106 363.065 235.902C361.251 241.607 357.446 246.719 352.84 249.977C352.263 250.387 350.029 251.405 347.437 252.397C347.752 253.936 348.043 255.539 348.312 257.215C353.327 288.449 353.131 317.627 343.909 347.052C341.293 355.347 333.601 360.989 324.906 360.989C324.904 360.991 324.904 360.991 324.904 360.991C317.183 360.991 310.318 356.068 307.844 348.751C304.868 339.957 301.38 329.644 301.38 329.644H216.846C216.846 329.644 212.492 341.959 209.244 351.152C207.159 357.049 201.584 360.991 195.331 360.991H195.329C187.545 360.991 180.788 355.625 179.025 348.043C177.018 339.412 174.746 329.644 174.746 329.644H149.316C146.364 329.644 143.596 327.918 142.551 325.158C139.297 316.562 132.817 294.445 143.175 268.63C143.936 266.736 145.905 265.603 147.948 265.603C154.723 265.598 169.689 265.598 169.689 265.598C169.689 265.598 171.952 231.131 203.164 212.956L194.674 196.752C194.674 196.752 208.87 191.159 221.438 207.324C251.39 200.276 277.803 199.518 311.44 209.498C319.313 211.82 326.434 216.177 332.088 222.13C336.023 226.264 339.123 230.406 341.583 235.104C342.906 237.633 344.042 240.323 345.025 243.259ZM351.982 217.645C350.982 216.936 349.917 216.524 348.867 216.393C346.506 216.097 343.995 216.996 344.608 219.209C345.135 221.117 346.4 221.755 347.756 221.335C349.427 220.817 351.081 219.436 351.982 217.645Z" fill="#FFC3BB"/>
<path fill-rule="evenodd" clip-rule="evenodd" d="M216.251 331.334L218.976 322.948C219.108 322.54 219.512 322.282 219.937 322.335C220.363 322.388 220.693 322.736 220.722 323.164L221.169 329.646H216.848L216.251 331.334ZM296.216 329.646L297.629 322.633C297.693 322.322 297.957 322.091 298.275 322.071C298.592 322.049 298.885 322.245 298.987 322.547C300.025 325.611 301.655 330.426 301.655 330.426L301.648 330.428L301.383 329.646H296.216ZM329.177 271.315C329.177 247.653 310.976 227.972 287.386 226.127C270.167 224.764 253.05 224.776 236.033 226.123C212.441 227.964 194.236 247.646 194.236 271.31C194.234 271.31 194.234 271.31 194.234 271.31C194.234 295.834 213.733 315.916 238.248 316.638C253.945 317.104 269.584 317.104 285.164 316.643C309.679 315.922 329.177 295.84 329.177 271.315ZM159.117 265.675C160.573 268.918 161.911 273.321 162.828 279.299C162.981 280.296 162.295 281.231 161.296 281.383C160.298 281.537 159.363 280.851 159.21 279.853C158.182 273.149 156.646 268.665 155.067 265.677L158.109 265.675H159.117ZM166.253 265.675C167.404 268.166 168.441 271.341 169.2 275.389C169.386 276.383 168.731 277.34 167.738 277.525C166.746 277.712 165.788 277.057 165.602 276.065C164.715 271.332 163.451 268.007 162.146 265.675H166.253ZM347.439 252.397C347.755 253.936 344.765 242.472 345.028 243.259C346.385 242.878 347.503 242.533 347.781 242.36C347.98 242.235 348.18 242.105 348.376 241.971C349.126 244.399 349.997 247.511 350.766 251.028C349.833 251.444 348.676 251.923 347.439 252.397ZM355.316 221.805C354.979 222.549 357.988 217.534 357.752 213.231C358.917 214.229 360.017 215.462 361.004 216.953C360.521 219.293 359.465 222.314 357.184 225.262C356.976 225.532 356.707 225.728 356.41 225.844C356.282 224.464 355.932 223.104 355.316 221.805ZM353.081 210.495C353.396 214.36 351.734 218.143 351.985 217.645C350.986 216.937 349.92 216.525 348.868 216.394C348.778 216.382 348.689 216.373 348.599 216.365C350.045 213.979 349.812 211.392 349.417 209.731C350.614 209.809 351.851 210.055 353.081 210.495ZM203.145 212.969L204.498 215.671C204.95 216.574 204.584 217.675 203.681 218.127C202.777 218.579 201.677 218.213 201.225 217.31L200.021 214.905C201.029 214.242 202.071 213.596 203.145 212.969ZM222.711 209.437C222.711 209.437 220.933 206.67 221.441 207.325C222.669 207.036 223.892 206.758 225.111 206.49L225.702 207.326C226.284 208.151 226.086 209.294 225.263 209.876C224.437 210.459 223.293 210.262 222.711 209.437Z" fill="#F27F71"/>
<path d="M146.949 329.721C152.352 329.721 156.733 315.383 156.733 297.697C156.733 280.01 152.352 265.673 146.949 265.673C141.545 265.673 137.165 280.01 137.165 297.697C137.165 315.383 141.545 329.721 146.949 329.721Z" fill="#F27F71"/>
<path fill-rule="evenodd" clip-rule="evenodd" d="M141.716 283.414V311.981C141.716 312.989 142.536 313.811 143.546 313.811C144.556 313.811 145.376 312.989 145.376 311.981V283.414C145.376 282.404 144.556 281.584 143.546 281.584C142.536 281.584 141.716 282.404 141.716 283.414Z" fill="#D7441E"/>
<path fill-rule="evenodd" clip-rule="evenodd" d="M148.521 283.414V311.981C148.521 312.989 149.341 313.811 150.352 313.811C151.362 313.811 152.182 312.989 152.182 311.981V283.414C152.182 282.404 151.362 281.584 150.352 281.584C149.341 281.584 148.521 282.404 148.521 283.414Z" fill="#D7441E"/>
<path fill-rule="evenodd" clip-rule="evenodd" d="M176.636 257.381C176.597 258.418 176.479 260.638 177.022 262.639C177.704 265.147 179.302 267.315 182.695 267.507C184.092 267.585 186.01 267.405 187.573 265.891C188.911 264.597 190.111 262.152 190.017 257.414L186.356 257.488C186.42 260.669 185.926 262.392 185.028 263.262C184.356 263.911 183.501 263.886 182.901 263.852C181.449 263.77 180.846 262.752 180.555 261.678C180.125 260.097 180.262 258.339 180.294 257.521L176.636 257.381Z" fill="black"/>
<path d="M301.732 212.255H229.13L230.964 220.322H303.566L301.732 212.255Z" fill="black"/>
<path fill-rule="evenodd" clip-rule="evenodd" d="M235.333 226.182C235.569 226.159 235.801 226.14 236.035 226.121C253.052 224.774 270.17 224.763 287.388 226.125C290.856 226.397 294.207 227.053 297.401 228.051V266.283H235.333V226.182Z" fill="#82B5B2"/>
<path fill-rule="evenodd" clip-rule="evenodd" d="M246.479 225.463C259.12 224.871 271.814 225.015 284.566 225.914C281.353 233.186 274.074 238.267 265.619 238.267C256.99 238.267 249.587 232.976 246.479 225.463Z" fill="#A8CFCC"/>
<path fill-rule="evenodd" clip-rule="evenodd" d="M255.161 266.282V248.453C255.161 246.326 256.885 244.602 259.01 244.602C261.137 244.602 262.861 246.326 262.861 248.453V266.282H255.161ZM268.02 266.282V252.999C268.02 250.874 269.746 249.148 271.871 249.148C273.996 249.148 275.721 250.874 275.721 252.999V266.282H268.02Z" fill="#A8CFCC"/>
<path d="M297.4 162.325H235.333V215.94H297.4V162.325Z" fill="#A8CFCC"/>
<path fill-rule="evenodd" clip-rule="evenodd" d="M244.976 215.94C245.805 205.271 254.736 196.859 265.617 196.859C276.497 196.859 285.428 205.271 286.257 215.94H244.976Z" fill="#82B5B2"/>
<path fill-rule="evenodd" clip-rule="evenodd" d="M277.961 162.325V177.517C277.961 179.641 276.237 181.367 274.112 181.367C271.987 181.367 270.261 179.641 270.261 177.517V162.325H277.961ZM265.102 162.325V172.97C265.102 175.095 263.376 176.82 261.251 176.82C259.126 176.82 257.401 175.095 257.401 172.97V162.325H265.102Z" fill="#82B5B2"/>
<path d="M235.397 285.35C246.197 285.35 254.952 276.684 254.952 265.993C254.952 255.302 246.197 246.635 235.397 246.635C224.598 246.635 215.843 255.302 215.843 265.993C215.843 276.684 224.598 285.35 235.397 285.35Z" fill="#FFCF84"/>
<path fill-rule="evenodd" clip-rule="evenodd" d="M235.399 250.895C243.816 250.895 250.651 257.66 250.651 265.993C250.651 274.327 243.816 281.092 235.399 281.092C235.057 281.092 234.779 281.367 234.779 281.705C234.779 282.044 235.057 282.319 235.399 282.319C244.5 282.319 251.89 275.004 251.89 265.993C251.89 256.983 244.5 249.668 235.399 249.668C235.057 249.668 234.779 249.943 234.779 250.281C234.779 250.62 235.057 250.895 235.399 250.895Z" fill="#FD9909"/>
<path fill-rule="evenodd" clip-rule="evenodd" d="M235.398 281.092C226.979 281.092 220.144 274.327 220.144 265.993C220.144 257.66 226.979 250.895 235.398 250.895C235.74 250.895 236.017 250.62 236.017 250.281C236.017 249.943 235.74 249.668 235.398 249.668C226.295 249.668 218.906 256.983 218.906 265.993C218.906 275.004 226.295 282.319 235.398 282.319C235.74 282.319 236.017 282.044 236.017 281.705C236.017 281.367 235.74 281.092 235.398 281.092Z" fill="#FD9909"/>
<path fill-rule="evenodd" clip-rule="evenodd" d="M237.75 285.212L237.35 282.023C237.308 281.687 237.55 281.38 237.889 281.338C238.229 281.297 238.537 281.535 238.58 281.871L238.976 285.027C238.572 285.101 238.163 285.163 237.75 285.212ZM241.407 284.418L240.299 281.182C240.19 280.861 240.363 280.513 240.688 280.404C241.011 280.295 241.363 280.467 241.472 280.788L242.574 284.003C242.191 284.153 241.802 284.291 241.407 284.418ZM224.617 282.143L226.339 279.339C226.516 279.05 226.898 278.958 227.19 279.134C227.483 279.31 227.576 279.687 227.398 279.976L225.671 282.787C225.312 282.583 224.96 282.368 224.617 282.143ZM251.485 276.992L248.639 274.907C248.365 274.706 248.307 274.322 248.51 274.049C248.713 273.777 249.101 273.72 249.376 273.921L252.159 275.96C251.946 276.312 251.72 276.656 251.485 276.992ZM216.812 272.027L220.156 270.537C220.467 270.398 220.835 270.536 220.975 270.845C221.115 271.153 220.977 271.517 220.664 271.656L217.237 273.183C217.084 272.803 216.941 272.418 216.812 272.027ZM254.37 261.298C254.469 261.694 254.557 262.093 254.632 262.498L251.335 263.267C251.003 263.345 250.668 263.14 250.59 262.811C250.511 262.482 250.718 262.151 251.05 262.073L254.37 261.298ZM219.238 255.093L222.185 257.001C222.471 257.186 222.551 257.566 222.364 257.85C222.177 258.133 221.793 258.213 221.507 258.027L218.573 256.127C218.784 255.775 219.007 255.43 219.238 255.093ZM221.161 252.727L223.557 254.471C223.832 254.672 223.892 255.056 223.689 255.328C223.487 255.601 223.098 255.66 222.823 255.459L220.338 253.649C220.602 253.333 220.877 253.026 221.161 252.727ZM246.698 250.199C247.035 250.436 247.365 250.684 247.686 250.941L245.544 253.615C245.33 253.88 244.94 253.924 244.673 253.714C244.405 253.504 244.36 253.118 244.572 252.852L246.698 250.199ZM243.38 248.32C243.758 248.488 244.13 248.668 244.494 248.858L242.984 251.662C242.823 251.961 242.447 252.074 242.145 251.915C241.844 251.756 241.73 251.384 241.891 251.085L243.38 248.32ZM231.011 247.126L231.884 250.204C231.975 250.53 231.783 250.869 231.454 250.96C231.124 251.052 230.782 250.861 230.69 250.535L229.813 247.438C230.207 247.322 230.606 247.217 231.011 247.126Z" fill="#FD9909"/>
<path d="M287.407 309.331C298.206 309.331 306.961 300.665 306.961 289.974C306.961 279.283 298.206 270.616 287.407 270.616C276.607 270.616 267.853 279.283 267.853 289.974C267.853 300.665 276.607 309.331 287.407 309.331Z" fill="#FFCF84"/>
<path fill-rule="evenodd" clip-rule="evenodd" d="M287.408 274.876C295.826 274.876 302.661 281.641 302.661 289.975C302.661 298.308 295.826 305.073 287.408 305.073C287.067 305.073 286.789 305.348 286.789 305.687C286.789 306.025 287.067 306.3 287.408 306.3C296.51 306.3 303.9 298.985 303.9 289.975C303.9 280.964 296.51 273.649 287.408 273.649C287.067 273.649 286.789 273.924 286.789 274.262C286.789 274.601 287.067 274.876 287.408 274.876Z" fill="#FD9909"/>
<path fill-rule="evenodd" clip-rule="evenodd" d="M287.407 305.073C278.989 305.073 272.154 298.308 272.154 289.975C272.154 281.641 278.989 274.876 287.407 274.876C287.749 274.876 288.027 274.601 288.027 274.262C288.027 273.924 287.749 273.649 287.407 273.649C278.305 273.649 270.916 280.964 270.916 289.975C270.916 298.985 278.305 306.3 287.407 306.3C287.749 306.3 288.027 306.025 288.027 305.687C288.027 305.348 287.749 305.073 287.407 305.073Z" fill="#FD9909"/>
<path fill-rule="evenodd" clip-rule="evenodd" d="M289.76 309.193L289.36 306.004C289.317 305.668 289.559 305.361 289.899 305.319C290.238 305.278 290.547 305.517 290.59 305.852L290.985 309.008C290.581 309.082 290.172 309.144 289.76 309.193ZM293.416 308.399L292.308 305.163C292.199 304.842 292.373 304.494 292.697 304.385C293.021 304.276 293.373 304.448 293.482 304.769L294.583 307.984C294.2 308.134 293.811 308.272 293.416 308.399ZM276.626 306.124L278.349 303.32C278.526 303.031 278.907 302.939 279.2 303.115C279.492 303.291 279.585 303.668 279.408 303.957L277.681 306.768C277.321 306.564 276.969 306.349 276.626 306.124ZM303.494 300.973L300.648 298.888C300.374 298.687 300.316 298.303 300.519 298.031C300.723 297.759 301.11 297.701 301.385 297.902L304.168 299.941C303.955 300.293 303.73 300.637 303.494 300.973ZM268.822 296.008L272.166 294.518C272.477 294.379 272.845 294.517 272.985 294.826C273.125 295.134 272.986 295.498 272.674 295.637L269.247 297.164C269.093 296.785 268.951 296.399 268.822 296.008ZM306.38 285.279C306.479 285.675 306.567 286.074 306.641 286.479L303.344 287.248C303.012 287.326 302.678 287.122 302.6 286.792C302.52 286.463 302.727 286.132 303.059 286.054L306.38 285.279ZM271.248 279.074L274.194 280.982C274.48 281.167 274.561 281.548 274.374 281.831C274.187 282.114 273.803 282.194 273.516 282.008L270.582 280.108C270.793 279.756 271.016 279.411 271.248 279.074ZM273.171 276.708L275.567 278.452C275.842 278.653 275.901 279.037 275.698 279.31C275.496 279.582 275.107 279.641 274.832 279.44L272.348 277.631C272.612 277.314 272.887 277.007 273.171 276.708ZM298.708 274.181C299.045 274.418 299.374 274.665 299.695 274.922L297.553 277.596C297.34 277.861 296.95 277.905 296.682 277.695C296.414 277.485 296.37 277.099 296.582 276.833L298.708 274.181ZM295.39 272.301C295.768 272.469 296.139 272.649 296.504 272.839L294.993 275.643C294.832 275.942 294.457 276.055 294.155 275.896C293.853 275.737 293.739 275.365 293.901 275.066L295.39 272.301ZM283.021 271.107L283.893 274.185C283.985 274.511 283.793 274.85 283.463 274.941C283.134 275.033 282.792 274.843 282.7 274.516L281.823 271.419C282.217 271.303 282.616 271.199 283.021 271.107Z" fill="#FD9909"/>
<path d="M193.085 162.223C203.884 162.223 212.639 153.557 212.639 142.866C212.639 132.175 203.884 123.508 193.085 123.508C182.285 123.508 173.531 132.175 173.531 142.866C173.531 153.557 182.285 162.223 193.085 162.223Z" fill="#FFCF84"/>
<path fill-rule="evenodd" clip-rule="evenodd" d="M193.086 127.768C201.504 127.768 208.338 134.533 208.338 142.866C208.338 151.2 201.504 157.965 193.086 157.965C192.744 157.965 192.467 158.24 192.467 158.579C192.467 158.917 192.744 159.192 193.086 159.192C202.188 159.192 209.577 151.877 209.577 142.866C209.577 133.856 202.188 126.541 193.086 126.541C192.744 126.541 192.467 126.816 192.467 127.154C192.467 127.493 192.744 127.768 193.086 127.768Z" fill="#FD9909"/>
<path fill-rule="evenodd" clip-rule="evenodd" d="M193.085 157.965C184.666 157.965 177.832 151.2 177.832 142.866C177.832 134.533 184.666 127.768 193.085 127.768C193.427 127.768 193.704 127.493 193.704 127.154C193.704 126.816 193.427 126.541 193.085 126.541C183.983 126.541 176.594 133.856 176.594 142.866C176.594 151.877 183.983 159.192 193.085 159.192C193.427 159.192 193.704 158.917 193.704 158.579C193.704 158.24 193.427 157.965 193.085 157.965Z" fill="#FD9909"/>
<path fill-rule="evenodd" clip-rule="evenodd" d="M195.438 162.085L195.037 158.896C194.995 158.56 195.237 158.253 195.576 158.211C195.916 158.17 196.224 158.409 196.268 158.744L196.663 161.9C196.259 161.974 195.85 162.036 195.438 162.085ZM199.094 161.291L197.986 158.055C197.877 157.734 198.051 157.386 198.375 157.277C198.699 157.168 199.05 157.34 199.159 157.661L200.261 160.876C199.878 161.026 199.489 161.164 199.094 161.291ZM182.304 159.016L184.026 156.212C184.203 155.923 184.585 155.831 184.877 156.007C185.17 156.183 185.263 156.56 185.086 156.849L183.358 159.66C182.999 159.456 182.647 159.241 182.304 159.016ZM209.172 153.865L206.326 151.78C206.052 151.579 205.994 151.195 206.197 150.923C206.4 150.65 206.788 150.593 207.063 150.794L209.846 152.833C209.633 153.185 209.407 153.529 209.172 153.865ZM174.5 148.9L177.844 147.41C178.155 147.271 178.523 147.409 178.663 147.718C178.803 148.026 178.664 148.39 178.352 148.529L174.924 150.056C174.771 149.676 174.628 149.291 174.5 148.9ZM212.058 138.171C212.157 138.567 212.245 138.966 212.319 139.371L209.022 140.14C208.69 140.218 208.355 140.014 208.277 139.684C208.198 139.355 208.405 139.024 208.737 138.946L212.058 138.171ZM176.925 131.966L179.872 133.874C180.158 134.059 180.239 134.439 180.051 134.723C179.864 135.006 179.48 135.086 179.194 134.9L176.26 133C176.471 132.648 176.694 132.303 176.925 131.966ZM178.848 129.6L181.245 131.344C181.52 131.545 181.579 131.929 181.376 132.202C181.174 132.474 180.785 132.533 180.51 132.332L178.026 130.523C178.29 130.206 178.565 129.899 178.848 129.6ZM204.386 127.072C204.723 127.309 205.052 127.557 205.373 127.814L203.231 130.488C203.018 130.753 202.627 130.797 202.36 130.587C202.092 130.377 202.048 129.991 202.259 129.725L204.386 127.072ZM201.068 125.193C201.445 125.361 201.817 125.541 202.181 125.731L200.671 128.535C200.51 128.834 200.135 128.947 199.832 128.788C199.531 128.629 199.417 128.257 199.578 127.958L201.068 125.193ZM188.699 123.999L189.571 127.077C189.662 127.403 189.47 127.742 189.141 127.833C188.811 127.925 188.469 127.734 188.378 127.408L187.5 124.311C187.894 124.195 188.293 124.091 188.699 123.999Z" fill="#FD9909"/>
<path d="M127.06 233.425C137.859 233.425 146.614 224.758 146.614 214.067C146.614 203.376 137.859 194.71 127.06 194.71C116.261 194.71 107.506 203.376 107.506 214.067C107.506 224.758 116.261 233.425 127.06 233.425Z" fill="#FFCF84"/>
<path fill-rule="evenodd" clip-rule="evenodd" d="M127.062 198.969C135.479 198.969 142.314 205.735 142.314 214.068C142.314 222.401 135.479 229.167 127.062 229.167C126.72 229.167 126.442 229.441 126.442 229.78C126.442 230.118 126.72 230.393 127.062 230.393C136.163 230.393 143.553 223.078 143.553 214.068C143.553 205.058 136.163 197.742 127.062 197.742C126.72 197.742 126.442 198.017 126.442 198.356C126.442 198.694 126.72 198.969 127.062 198.969Z" fill="#FD9909"/>
<path fill-rule="evenodd" clip-rule="evenodd" d="M127.06 229.167C118.642 229.167 111.807 222.401 111.807 214.068C111.807 205.735 118.642 198.969 127.06 198.969C127.402 198.969 127.68 198.694 127.68 198.356C127.68 198.017 127.402 197.742 127.06 197.742C117.958 197.742 110.569 205.058 110.569 214.068C110.569 223.078 117.958 230.393 127.06 230.393C127.402 230.393 127.68 230.118 127.68 229.78C127.68 229.441 127.402 229.167 127.06 229.167Z" fill="#FD9909"/>
<path fill-rule="evenodd" clip-rule="evenodd" d="M129.413 233.286L129.013 230.097C128.971 229.761 129.212 229.455 129.552 229.413C129.891 229.371 130.2 229.61 130.243 229.946L130.638 233.101C130.234 233.175 129.825 233.237 129.413 233.286ZM133.069 232.492L131.961 229.256C131.852 228.935 132.026 228.587 132.351 228.478C132.674 228.37 133.026 228.542 133.135 228.862L134.236 232.078C133.853 232.227 133.464 232.366 133.069 232.492ZM116.279 230.217L118.002 227.413C118.179 227.124 118.56 227.032 118.853 227.208C119.145 227.384 119.238 227.762 119.061 228.051L117.334 230.862C116.974 230.658 116.623 230.442 116.279 230.217ZM143.147 225.067L140.301 222.982C140.027 222.78 139.969 222.396 140.172 222.124C140.376 221.852 140.763 221.794 141.038 221.996L143.821 224.034C143.608 224.386 143.383 224.73 143.147 225.067ZM108.475 220.101L111.819 218.612C112.13 218.473 112.498 218.61 112.638 218.919C112.778 219.228 112.639 219.591 112.327 219.73L108.9 221.257C108.746 220.878 108.604 220.493 108.475 220.101ZM146.033 209.373C146.132 209.768 146.22 210.168 146.294 210.572L142.997 211.342C142.665 211.419 142.331 211.215 142.253 210.885C142.173 210.556 142.38 210.225 142.712 210.148L146.033 209.373ZM110.901 203.167L113.847 205.075C114.133 205.26 114.214 205.641 114.027 205.924C113.84 206.207 113.456 206.287 113.169 206.102L110.235 204.202C110.446 203.849 110.669 203.504 110.901 203.167ZM112.824 200.801L115.22 202.545C115.495 202.746 115.555 203.13 115.351 203.403C115.149 203.675 114.76 203.734 114.485 203.533L112.001 201.724C112.265 201.408 112.54 201.1 112.824 200.801ZM138.361 198.274C138.698 198.511 139.028 198.758 139.348 199.015L137.206 201.689C136.993 201.954 136.603 201.999 136.335 201.788C136.068 201.578 136.023 201.192 136.235 200.927L138.361 198.274ZM135.043 196.395C135.421 196.563 135.793 196.742 136.157 196.932L134.646 199.737C134.485 200.035 134.11 200.148 133.808 199.989C133.507 199.83 133.393 199.458 133.554 199.159L135.043 196.395ZM122.674 195.2L123.546 198.279C123.638 198.604 123.446 198.943 123.116 199.035C122.787 199.126 122.445 198.936 122.353 198.61L121.476 195.512C121.87 195.396 122.269 195.292 122.674 195.2Z" fill="#FD9909"/>
<path d="M394.241 207.248C405.041 207.248 413.796 198.582 413.796 187.891C413.796 177.2 405.041 168.533 394.241 168.533C383.442 168.533 374.687 177.2 374.687 187.891C374.687 198.582 383.442 207.248 394.241 207.248Z" fill="#FFCF84"/>
<path fill-rule="evenodd" clip-rule="evenodd" d="M394.243 172.793C402.66 172.793 409.495 179.558 409.495 187.891C409.495 196.225 402.66 202.99 394.243 202.99C393.901 202.99 393.623 203.265 393.623 203.603C393.623 203.942 393.901 204.217 394.243 204.217C403.344 204.217 410.734 196.902 410.734 187.891C410.734 178.881 403.344 171.566 394.243 171.566C393.901 171.566 393.623 171.841 393.623 172.179C393.623 172.518 393.901 172.793 394.243 172.793Z" fill="#FD9909"/>
<path fill-rule="evenodd" clip-rule="evenodd" d="M394.242 202.99C385.823 202.99 378.988 196.225 378.988 187.891C378.988 179.558 385.823 172.793 394.242 172.793C394.584 172.793 394.861 172.518 394.861 172.179C394.861 171.841 394.584 171.566 394.242 171.566C385.139 171.566 377.75 178.881 377.75 187.891C377.75 196.902 385.139 204.217 394.242 204.217C394.584 204.217 394.861 203.942 394.861 203.603C394.861 203.265 394.584 202.99 394.242 202.99Z" fill="#FD9909"/>
<path fill-rule="evenodd" clip-rule="evenodd" d="M396.594 207.11L396.194 203.921C396.152 203.585 396.394 203.278 396.733 203.236C397.073 203.195 397.381 203.433 397.424 203.769L397.82 206.925C397.416 206.999 397.007 207.061 396.594 207.11ZM400.251 206.316L399.143 203.08C399.034 202.759 399.207 202.41 399.532 202.302C399.855 202.193 400.207 202.365 400.316 202.686L401.418 205.901C401.035 206.051 400.646 206.189 400.251 206.316ZM383.461 204.041L385.183 201.237C385.36 200.948 385.742 200.856 386.034 201.032C386.327 201.208 386.42 201.585 386.242 201.874L384.515 204.685C384.156 204.481 383.804 204.266 383.461 204.041ZM410.329 198.89L407.483 196.805C407.209 196.604 407.151 196.22 407.354 195.947C407.557 195.675 407.945 195.618 408.22 195.819L411.003 197.858C410.79 198.21 410.564 198.554 410.329 198.89ZM375.656 193.925L379 192.435C379.311 192.296 379.679 192.434 379.819 192.743C379.959 193.051 379.821 193.415 379.508 193.554L376.081 195.081C375.928 194.701 375.785 194.316 375.656 193.925ZM413.214 183.196C413.313 183.591 413.401 183.991 413.476 184.395L410.179 185.165C409.847 185.243 409.512 185.038 409.434 184.709C409.355 184.38 409.562 184.049 409.894 183.971L413.214 183.196ZM378.082 176.991L381.029 178.899C381.315 179.084 381.395 179.464 381.208 179.748C381.021 180.031 380.637 180.111 380.351 179.925L377.417 178.025C377.628 177.673 377.851 177.328 378.082 176.991ZM380.005 174.625L382.401 176.369C382.676 176.57 382.736 176.954 382.533 177.226C382.331 177.499 381.942 177.558 381.667 177.357L379.182 175.547C379.446 175.231 379.721 174.924 380.005 174.625ZM405.542 172.097C405.879 172.334 406.209 172.582 406.53 172.839L404.388 175.513C404.175 175.778 403.784 175.822 403.517 175.612C403.249 175.402 403.204 175.015 403.416 174.75L405.542 172.097ZM402.224 170.218C402.602 170.386 402.974 170.566 403.338 170.756L401.828 173.56C401.667 173.859 401.291 173.972 400.989 173.813C400.688 173.654 400.574 173.282 400.735 172.983L402.224 170.218ZM389.855 169.024L390.728 172.102C390.819 172.428 390.627 172.767 390.298 172.858C389.968 172.95 389.626 172.759 389.534 172.433L388.657 169.336C389.051 169.22 389.45 169.115 389.855 169.024Z" fill="#FD9909"/>
<path fill-rule="evenodd" clip-rule="evenodd" d="M324.503 164.31V161.256C324.503 160.751 324.913 160.341 325.418 160.341C325.924 160.341 326.333 160.751 326.333 161.256V164.31H329.386C329.891 164.31 330.301 164.719 330.301 165.225C330.301 165.73 329.891 166.14 329.386 166.14H326.333V169.193C326.333 169.698 325.924 170.108 325.418 170.108C324.913 170.108 324.503 169.698 324.503 169.193V166.14H321.449C320.944 166.14 320.534 165.73 320.534 165.225C320.534 164.719 320.944 164.31 321.449 164.31H324.503Z" fill="#FD9500"/>
<path fill-rule="evenodd" clip-rule="evenodd" d="M175.234 198.945V195.892C175.234 195.387 175.644 194.977 176.149 194.977C176.654 194.977 177.064 195.387 177.064 195.892V198.945H180.117C180.622 198.945 181.032 199.355 181.032 199.86C181.032 200.365 180.622 200.775 180.117 200.775H177.064V203.828C177.064 204.333 176.654 204.744 176.149 204.744C175.644 204.744 175.234 204.333 175.234 203.828V200.775H172.18C171.675 200.775 171.265 200.365 171.265 199.86C171.265 199.355 171.675 198.945 172.18 198.945H175.234Z" fill="#FD9500"/>
<path fill-rule="evenodd" clip-rule="evenodd" d="M384.264 230.25V227.197C384.264 226.692 384.674 226.282 385.18 226.282C385.685 226.282 386.095 226.692 386.095 227.197V230.25H389.147C389.652 230.25 390.062 230.66 390.062 231.165C390.062 231.67 389.652 232.08 389.147 232.08H386.095V235.134C386.095 235.639 385.685 236.049 385.18 236.049C384.674 236.049 384.264 235.639 384.264 235.134V232.08H381.21C380.705 232.08 380.295 231.67 380.295 231.165C380.295 230.66 380.705 230.25 381.21 230.25H384.264Z" fill="#FD9500"/>
</svg>
