<svg width="500" height="500" viewBox="0 0 500 500" fill="none" xmlns="http://www.w3.org/2000/svg">
<path d="M423.532 134.235H306.721V291.877H423.532V134.235Z" fill="#FFD593"/>
<path d="M390.703 186.752C402.955 186.752 412.887 176.82 412.887 164.568C412.887 152.316 402.955 142.384 390.703 142.384C378.451 142.384 368.519 152.316 368.519 164.568C368.519 176.82 378.451 186.752 390.703 186.752Z" fill="white"/>
<path d="M390.788 168.886C395.055 168.886 398.514 165.427 398.514 161.161C398.514 156.894 395.055 153.435 390.788 153.435C386.521 153.435 383.062 156.894 383.062 161.161C383.062 165.427 386.521 168.886 390.788 168.886Z" fill="#B5D6D4"/>
<path fill-rule="evenodd" clip-rule="evenodd" d="M371.725 176.053C377.657 172.333 390.874 167.032 408.703 177.526C404.673 183.111 398.111 186.75 390.702 186.75C382.662 186.75 375.614 182.463 371.725 176.053Z" fill="#B5D6D4"/>
<path fill-rule="evenodd" clip-rule="evenodd" d="M391.199 153.445C395.04 153.648 398.141 156.66 398.483 160.463C391.905 159.289 391.215 155.062 391.199 153.445ZM383.099 160.407C383.477 156.495 386.779 153.435 390.787 153.435C390.906 153.435 391.023 153.437 391.14 153.443C390.26 158.206 385.518 159.865 383.099 160.407Z" fill="black"/>
<path fill-rule="evenodd" clip-rule="evenodd" d="M355.668 171.613H316.034V177.338H355.668V171.613ZM352.354 159.551H316.034V165.276H352.354V159.551ZM360.195 147.537H316.034V153.262H360.195V147.537Z" fill="#FDA527"/>
<path fill-rule="evenodd" clip-rule="evenodd" d="M390.479 230.523H331.814V235.277H390.479V230.523ZM379.987 221.018H331.814V225.772H379.987V221.018ZM390.479 211.128H331.814V215.882H390.479V211.128Z" fill="#FDA527"/>
<path d="M390.479 241.344H331.814V246.098H390.479V241.344Z" fill="#FDA527"/>
<path fill-rule="evenodd" clip-rule="evenodd" d="M393.001 280.612H334.335V285.365H393.001V280.612ZM379.96 270.721H334.335V275.474H379.96V270.721Z" fill="#FDA527"/>
<path d="M407.634 193.188H315.872V201.74H407.634V193.188Z" fill="#FDA527"/>
<path d="M409.65 256.756H317.888V265.308H409.65V256.756Z" fill="#FDA527"/>
<path d="M315.995 129.375H199.184V287.017H315.995V129.375Z" fill="#B5D6D4"/>
<path d="M283.167 181.892C295.419 181.892 305.351 171.96 305.351 159.708C305.351 147.456 295.419 137.524 283.167 137.524C270.915 137.524 260.982 147.456 260.982 159.708C260.982 171.96 270.915 181.892 283.167 181.892Z" fill="white"/>
<path fill-rule="evenodd" clip-rule="evenodd" d="M264.99 172.423C270.455 168.501 285.581 160.029 301.492 172.208C297.497 178.053 290.777 181.893 283.167 181.893C275.652 181.893 269.005 178.148 264.99 172.423Z" fill="#EC7954"/>
<path d="M283.826 161.653C288.158 161.653 291.669 158.141 291.669 153.809C291.669 149.477 288.158 145.966 283.826 145.966C279.494 145.966 275.982 149.477 275.982 153.809C275.982 158.141 279.494 161.653 283.826 161.653Z" fill="#EC7954"/>
<path d="M297.282 160.928C300.433 160.928 302.988 158.374 302.988 155.223C302.988 152.072 300.433 149.517 297.282 149.517C294.131 149.517 291.576 152.072 291.576 155.223C291.576 158.374 294.131 160.928 297.282 160.928Z" fill="black"/>
<path fill-rule="evenodd" clip-rule="evenodd" d="M275.988 154.092C275.986 153.999 275.984 153.904 275.984 153.809C275.984 149.48 279.498 145.966 283.828 145.966C288.156 145.966 291.67 149.48 291.67 153.809C291.67 154.066 291.659 154.32 291.634 154.57C285.762 153.788 284.145 148.621 284.145 148.621C282.232 153.204 278.422 154.057 275.988 154.092Z" fill="black"/>
<path fill-rule="evenodd" clip-rule="evenodd" d="M246.225 166.753H208.498V172.478H246.225V166.753ZM252.658 154.691H208.498V160.416H252.658V154.691ZM243.401 142.677H208.498V148.402H243.401V142.677Z" fill="#95C0BE"/>
<path fill-rule="evenodd" clip-rule="evenodd" d="M283.307 223.653H224.642V228.407H283.307V223.653ZM283.307 214.148H224.642V218.902H283.307V214.148ZM283.307 204.258H224.642V209.012H283.307V204.258Z" fill="#95C0BE"/>
<path fill-rule="evenodd" clip-rule="evenodd" d="M283.307 270.764H224.642V275.517H283.307V270.764ZM283.307 261.26H224.642V266.013H283.307V261.26ZM283.307 251.37H224.642V256.122H283.307V251.37Z" fill="#95C0BE"/>
<path d="M300.098 188.328H208.336V196.88H300.098V188.328Z" fill="#95C0BE"/>
<path d="M300.098 236.397H208.336V244.949H300.098V236.397Z" fill="#95C0BE"/>
<path d="M210.866 124.348H94.0552V281.989H210.866V124.348Z" fill="#FFF3E4"/>
<path d="M178.038 176.864C190.29 176.864 200.222 166.932 200.222 154.68C200.222 142.428 190.29 132.496 178.038 132.496C165.786 132.496 155.853 142.428 155.853 154.68C155.853 166.932 165.786 176.864 178.038 176.864Z" fill="white"/>
<path fill-rule="evenodd" clip-rule="evenodd" d="M158.756 165.653C162.825 160.533 169.952 157.135 178.057 157.135C186.148 157.135 193.263 160.52 197.335 165.625C193.519 172.335 186.304 176.866 178.038 176.866C169.785 176.866 162.578 172.348 158.756 165.653Z" fill="#FDA527"/>
<path fill-rule="evenodd" clip-rule="evenodd" d="M175.168 157.281C176.114 157.185 177.079 157.135 178.058 157.135C179.409 157.135 180.732 157.229 182.019 157.41C181.799 158.691 180.939 159.599 179.953 160.008L182.502 176.415C181.06 176.711 179.567 176.866 178.039 176.866C176.717 176.866 175.423 176.75 174.164 176.528L177.502 160.02C175.869 159.449 175.337 158.022 175.168 157.281Z" fill="black"/>
<path d="M177.94 154.543C182.212 154.543 185.675 151.08 185.675 146.808C185.675 142.536 182.212 139.072 177.94 139.072C173.668 139.072 170.204 142.536 170.204 146.808C170.204 151.08 173.668 154.543 177.94 154.543Z" fill="#FDA527"/>
<path fill-rule="evenodd" clip-rule="evenodd" d="M170.206 146.783C170.219 142.525 173.68 139.072 177.941 139.072C182.21 139.072 185.676 142.538 185.676 146.808C185.676 147.142 185.655 147.472 185.614 147.795C180.471 147.237 178.303 141.816 178.303 141.816C176.448 145.76 172.374 146.616 170.206 146.783Z" fill="black"/>
<path fill-rule="evenodd" clip-rule="evenodd" d="M131.618 161.725H103.367V167.45H131.618V161.725ZM147.527 149.663H103.367V155.388H147.527V149.663ZM147.527 137.65H103.367V143.375H147.527V137.65Z" fill="#FFB1A6"/>
<path fill-rule="evenodd" clip-rule="evenodd" d="M178.178 218.626H119.512V223.379H178.178V218.626ZM178.178 209.12H119.512V213.874H178.178V209.12ZM178.178 199.23H119.512V203.984H178.178V199.23Z" fill="#FFB1A6"/>
<path fill-rule="evenodd" clip-rule="evenodd" d="M178.178 265.736H119.512V270.489H178.178V265.736ZM178.178 256.232H119.512V260.985H178.178V256.232ZM178.178 246.342H119.512V251.095H178.178V246.342Z" fill="#FFB1A6"/>
<path d="M194.969 183.3H103.207V191.852H194.969V183.3Z" fill="#FFB1A6"/>
<path d="M194.969 231.373H103.207V239.925H194.969V231.373Z" fill="#FFB1A6"/>
<path d="M223.487 197.472C234.454 195.833 241.288 180.747 238.751 163.776C236.215 146.806 225.268 134.378 214.302 136.017C203.335 137.656 196.501 152.742 199.037 169.712C201.574 186.682 212.52 199.111 223.487 197.472Z" fill="white"/>
<path fill-rule="evenodd" clip-rule="evenodd" d="M201.662 179.685C206.254 174.786 212.778 171.261 220.423 170.119C227.088 169.123 233.615 170.086 239.246 172.535C238.737 185.653 232.508 196.12 223.487 197.469C214.825 198.764 206.162 191.262 201.662 179.685Z" fill="#FDA527"/>
<path fill-rule="evenodd" clip-rule="evenodd" d="M220.575 197.579L220.478 174.459C218.138 173.948 217.03 171.963 216.6 170.91C217.839 170.58 219.113 170.315 220.424 170.119C222.226 169.849 224.022 169.723 225.791 169.731C225.854 171.653 224.955 173.155 223.749 173.951L230.566 194.147C228.489 195.918 226.106 197.077 223.487 197.469C222.515 197.614 221.542 197.648 220.575 197.579Z" fill="black"/>
<path d="M219.549 166.345C225.258 165.492 228.928 159.724 227.746 153.462C226.565 147.2 220.978 142.816 215.269 143.669C209.559 144.522 205.889 150.29 207.071 156.552C208.253 162.814 213.839 167.198 219.549 166.345Z" fill="#FDA527"/>
<path fill-rule="evenodd" clip-rule="evenodd" d="M207.064 156.516C205.904 150.273 209.574 144.52 215.269 143.669C220.974 142.816 226.565 147.204 227.746 153.462C227.839 153.953 227.902 154.44 227.936 154.922C220.909 155.131 216.511 147.618 216.511 147.618C215.124 153.77 209.915 155.838 207.064 156.516Z" fill="black"/>
<path fill-rule="evenodd" clip-rule="evenodd" d="M222.356 198.45L227.174 231.72C227.341 232.879 228.418 233.683 229.575 233.515C230.734 233.347 231.538 232.271 231.369 231.113L226.553 197.842C226.385 196.684 225.309 195.88 224.15 196.047C222.993 196.215 222.189 197.291 222.356 198.45Z" fill="#DD6140"/>
<path fill-rule="evenodd" clip-rule="evenodd" d="M223.368 205.433L222.356 198.45C222.189 197.292 222.993 196.216 224.151 196.048C225.31 195.88 226.386 196.684 226.552 197.843L227.316 203.114C225.842 204.403 224.521 205.105 223.368 205.433Z" fill="black"/>
<path fill-rule="evenodd" clip-rule="evenodd" d="M223.126 195.646C219.301 196.168 215.528 194.655 212.216 191.791C206.823 187.127 202.68 178.958 201.364 169.315C200.047 159.671 201.849 150.691 205.794 144.752C208.218 141.106 211.447 138.636 215.271 138.114C216.431 137.956 217.245 136.886 217.087 135.726C216.928 134.567 215.858 133.754 214.698 133.912C209.721 134.592 205.414 137.66 202.262 142.405C197.843 149.056 195.688 159.089 197.162 169.888C198.636 180.688 203.402 189.776 209.442 194.999C213.751 198.726 218.723 200.527 223.699 199.848C224.859 199.689 225.673 198.619 225.515 197.46C225.356 196.3 224.285 195.488 223.126 195.646Z" fill="#DD6140"/>
<path fill-rule="evenodd" clip-rule="evenodd" d="M215.271 138.116C219.097 137.594 222.87 139.107 226.183 141.971C231.575 146.634 235.718 154.803 237.034 164.447C238.351 174.09 236.549 183.071 232.604 189.009C230.181 192.656 226.951 195.125 223.125 195.648C221.965 195.806 221.153 196.876 221.312 198.035C221.47 199.195 222.539 200.008 223.699 199.849C228.677 199.17 232.982 196.102 236.136 191.356C240.554 184.706 242.709 174.673 241.235 163.873C239.76 153.074 234.995 143.986 228.956 138.763C224.645 135.036 219.675 133.235 214.697 133.914C213.537 134.073 212.725 135.143 212.884 136.302C213.042 137.461 214.111 138.274 215.271 138.116Z" fill="#DD6140"/>
<path fill-rule="evenodd" clip-rule="evenodd" d="M247.34 288C247.34 288 213.327 352.704 205.931 368.846C205.931 368.846 197.66 369.715 193.907 375.003H250.918L264.681 351.029C264.681 351.029 274.884 364.476 284.084 368.846C284.084 368.846 278.76 371.985 278.09 375.003H330.472L293.083 316.659C293.083 316.659 319.884 266.401 293.083 251.811C285.532 247.7 266.978 248.495 247.34 288Z" fill="url(#paint0_linear_1_3557)"/>
<path fill-rule="evenodd" clip-rule="evenodd" d="M261.074 265.881L251.24 288.242C243.925 304.878 245.801 324.124 256.191 339.036L256.244 339.111L296.863 322.557L297.664 323.811L257.102 340.343C261.568 346.737 265.702 352.449 267.853 354.874C267.891 354.916 267.924 354.962 267.954 355.009C265.933 352.68 264.681 351.031 264.681 351.031L263.737 352.674C261.29 349.46 258.049 344.911 254.688 340.081C251.683 335.767 249.366 331.102 247.752 326.243L228.195 324.715L228.523 324.083L228.927 323.304L247.276 324.739C243.642 312.619 244.328 299.416 249.566 287.506L256.056 272.746C257.75 270.202 259.425 267.921 261.074 265.881ZM293.682 317.595L293.675 317.612C293.675 317.612 290.475 312.546 288.605 309.585C288.417 309.288 288.442 308.906 288.665 308.635C288.889 308.364 289.26 308.269 289.586 308.397L295.865 310.851C294.255 314.462 293.083 316.66 293.083 316.66L293.682 317.595Z" fill="#F49387"/>
<path fill-rule="evenodd" clip-rule="evenodd" d="M343.428 160.059C345.551 158.207 348.585 154.806 349.187 153.034C350.064 150.458 348.227 150.107 347.24 150.877C343.135 154.083 337.518 156.561 337.518 156.561C326.956 161.158 300.891 189.459 300.891 189.459C285.573 204.425 261.353 205.47 254.634 205.457C252.333 205.447 250.059 205.953 247.98 206.938C240.847 210.331 236.532 217.448 236.532 217.448C236.532 217.448 233.81 214.532 231.428 213.206C230.434 212.657 229.198 212.83 228.393 213.63C228.393 213.63 228.393 213.63 228.393 213.63C226.096 213.202 223.825 214.486 223.007 216.674C222.824 217.167 222.672 217.619 222.597 217.965C222.597 217.965 220.463 218.82 220.353 221.13C220.353 221.13 217.839 222.175 217.828 224.631C217.828 224.631 214.092 228.476 217.828 232.232C217.828 232.232 220.373 233.728 220.99 230.451C220.99 230.451 221.905 260.189 222.354 274.762C222.509 279.768 224.777 284.473 228.598 287.711C233.305 291.7 240.073 292.125 245.243 288.756C245.589 288.531 245.922 288.315 246.239 288.108C248.534 286.613 250.505 284.669 252.032 282.392C254.559 278.618 257.795 272.409 258.102 264.986V249.557C258.102 249.557 270.049 254.329 278.499 236.12C278.499 236.12 284.158 237.073 291.834 235.217C296.426 234.107 301.741 231.991 306.999 228.064C310.674 225.326 313.842 221.965 316.356 218.132C321.272 210.647 333.944 191.328 337.518 185.771C337.518 185.771 341.874 179.386 345.613 176.169C345.613 176.169 349.264 179.687 352.262 172.271C352.262 172.271 353.702 168.774 349.747 167.17C349.747 167.17 350.038 163.263 346.287 163.21C346.66 160.541 345.348 159.936 343.428 160.059Z" fill="#FFCCC5"/>
<path fill-rule="evenodd" clip-rule="evenodd" d="M313.652 176.3C317.449 178.55 324.766 183.658 332.64 193.281C327.354 201.377 319.872 212.781 316.357 218.134C313.842 221.966 310.674 225.328 306.999 228.065C301.741 231.992 296.426 234.108 291.834 235.218C284.159 237.075 278.5 236.122 278.5 236.122C270.05 254.33 258.103 249.559 258.103 249.559V264.987C257.795 272.41 254.56 278.62 252.032 282.394C250.506 284.67 248.535 286.614 246.24 288.109C245.923 288.316 245.59 288.532 245.244 288.757C240.074 292.127 233.306 291.702 228.599 287.712C224.777 284.475 222.51 279.769 222.354 274.764L221.434 244.854H233.917C233.685 241.686 233.879 225.195 235.185 220.982C235.696 219.333 236.207 218.115 236.763 217.089C237.744 215.602 241.807 209.876 247.98 206.939C250.059 205.954 252.334 205.448 254.635 205.459C261.353 205.471 285.573 204.426 300.892 189.461C300.892 189.461 306.545 183.323 313.652 176.3Z" fill="#F49387"/>
<path fill-rule="evenodd" clip-rule="evenodd" d="M233.884 244.241H233.93V273.286C233.93 273.5 233.764 273.675 233.55 273.685C233.337 273.694 233.154 273.535 233.136 273.322L230.574 244.852H233.917C233.905 244.685 233.894 244.48 233.884 244.241ZM258.103 250.427L257.034 227.442C257.029 227.302 257.126 227.178 257.265 227.152C257.402 227.126 257.539 227.206 257.583 227.34C258.681 230.917 260.934 239.091 262.387 250.103C259.809 250.238 258.103 249.558 258.103 249.558V250.427ZM278.151 236.856C278.945 234.791 281.659 226.273 276.595 217.045C276.481 216.84 276.538 216.583 276.727 216.445C276.915 216.306 277.177 216.329 277.34 216.499C279.756 219.057 283.59 224.67 286.363 236.157C281.617 236.645 278.5 236.12 278.5 236.12C278.385 236.37 278.268 236.615 278.151 236.856Z" fill="#B44335"/>
<path fill-rule="evenodd" clip-rule="evenodd" d="M221.17 229.655C221.055 230.352 220.817 231.125 220.817 231.125L218.634 229.955C218.275 229.77 218.134 229.328 218.319 228.969C218.506 228.61 218.947 228.469 219.305 228.654L221.17 229.655ZM218.392 222.771C218.648 222.711 218.932 222.678 219.243 222.685C220.638 222.717 222.735 223.617 225.237 227.472C225.458 227.811 225.361 228.265 225.023 228.485C224.684 228.705 224.23 228.608 224.009 228.269C221.946 225.09 220.359 224.175 219.208 224.148C218.317 224.128 217.817 224.703 217.817 224.703L217.828 224.631C217.832 223.884 218.066 223.267 218.392 222.771ZM220.85 219.486C221.13 219.451 221.448 219.445 221.805 219.489C223.118 219.65 225.096 220.533 227.605 223.64C227.859 223.954 227.81 224.416 227.495 224.67C227.18 224.923 226.719 224.874 226.467 224.56C222.402 219.527 220.354 221.13 220.354 221.13C220.385 220.467 220.583 219.924 220.85 219.486ZM223.161 216.307C223.467 216.269 223.813 216.254 224.195 216.282C225.608 216.386 227.592 217.079 229.781 219.586C230.047 219.89 230.015 220.353 229.712 220.619C229.408 220.885 228.945 220.853 228.679 220.549C225.663 217.096 223.238 217.703 222.6 217.949C222.678 217.605 222.827 217.159 223.008 216.673C223.053 216.549 223.107 216.426 223.161 216.307ZM229.81 212.916C230.812 213.573 232.188 214.717 233.438 216.593C233.661 216.93 233.57 217.384 233.235 217.608C232.898 217.832 232.442 217.741 232.219 217.405C230.462 214.767 228.255 213.604 228.394 213.63C228.789 213.237 229.287 212.996 229.81 212.916ZM345.614 176.168C345.206 176.52 349.108 172.157 349.108 172.157C349.873 171.523 350.736 172.423 350.186 173.148L346.785 176.846C346.066 176.605 345.614 176.168 345.614 176.168ZM349.607 165.776C349.796 166.536 349.748 167.17 349.748 167.17C349.832 167.204 348.313 167.436 347.506 167.862C345.996 168.659 344.759 169.882 344.759 169.882C344.472 170.166 344.007 170.163 343.723 169.876C343.44 169.589 343.443 169.125 343.731 168.841C343.731 168.841 345.123 167.464 346.824 166.567C347.715 166.096 348.689 165.773 349.607 165.776ZM346.289 161.676C346.37 162.086 346.373 162.587 346.289 163.196C345.383 163.48 343.634 164.242 341.403 166.253C341.103 166.524 340.639 166.5 340.369 166.2C340.098 165.9 340.122 165.436 340.422 165.166C343.178 162.681 345.321 161.911 346.289 161.676ZM345.233 158.333C344.609 158.977 343.989 159.572 343.429 160.059C343.515 160.053 339.856 161.437 337.922 162.686C337.581 162.905 337.129 162.808 336.91 162.468C336.69 162.129 336.787 161.675 337.127 161.456C339.9 159.667 342.816 158.477 345.233 158.333Z" fill="#F49387"/>
<path d="M254.951 197.864C260.79 197.864 265.524 193.131 265.524 187.292C265.524 181.453 260.79 176.72 254.951 176.72C249.113 176.72 244.379 181.453 244.379 187.292C244.379 193.131 249.113 197.864 254.951 197.864Z" fill="#FFCCC5"/>
<path fill-rule="evenodd" clip-rule="evenodd" d="M257.293 176.979C262.003 178.047 265.523 182.26 265.523 187.29C265.523 193.125 260.784 197.863 254.95 197.863C254.78 197.863 254.608 197.858 254.439 197.85C252.73 193.997 255.349 192.424 256.052 192.083C256.484 192.445 257.042 192.663 257.651 192.663C259.022 192.663 260.135 191.561 260.135 190.203C260.135 188.845 259.022 187.743 257.651 187.743C257.1 187.743 256.59 187.922 256.176 188.225C252.223 182.837 255.503 178.664 257.293 176.979Z" fill="black"/>
<path fill-rule="evenodd" clip-rule="evenodd" d="M267.874 188.881C267.765 188.85 268.583 188.416 268.793 188.277C269.375 187.894 269.948 187.487 270.488 187.046C272.12 185.708 273.151 184.099 274.284 182.351C278.131 176.412 284.322 170.408 291.785 170.114C304.986 169.595 312.303 184.538 310.382 196.005C308.925 204.702 299.703 209.258 291.458 208.043C286.56 207.321 281.833 204.501 278.546 200.837C276.615 198.684 275.158 196.159 273.568 193.756C272.137 191.591 270.629 189.193 267.874 188.881Z" fill="black"/>
<defs>
<linearGradient id="paint0_linear_1_3557" x1="255.717" y1="295.477" x2="249.491" y2="431.15" gradientUnits="userSpaceOnUse">
<stop stop-color="#FFCCC5"/>
<stop offset="1" stop-color="#F49387"/>
</linearGradient>
</defs>
</svg>
