<svg width="500" height="500" viewBox="0 0 500 500" fill="none" xmlns="http://www.w3.org/2000/svg">
<path d="M409.626 272.259H271.248V384.287H409.626V272.259Z" fill="#FFAFA4"/>
<path fill-rule="evenodd" clip-rule="evenodd" d="M311.21 323.641H289.543V370.693H311.21V323.641ZM396.207 325.873H374.539V370.693H396.207V325.873ZM367.876 313.32H346.206V370.693H367.876V313.32ZM339.543 297.254H317.874V370.693H339.543V297.254ZM390.111 318.493H380.355V323.822H390.111V318.493ZM304.838 316.422H295.082V321.748H304.838V316.422ZM361.919 306.447H352.164V311.776H361.919V306.447ZM333.236 290.012H323.483V295.342H333.236V290.012Z" fill="#FFF1E2"/>
<path fill-rule="evenodd" clip-rule="evenodd" d="M352.049 362.2L394.628 316.161C395.235 315.505 396.256 315.473 396.904 316.091C397.55 316.711 397.581 317.749 396.974 318.406L353.07 365.878C352.741 366.232 352.275 366.42 351.8 366.391C351.322 366.362 350.88 366.117 350.599 365.724L320.091 323.43L287.52 367.48C286.984 368.203 285.976 368.35 285.265 367.805C284.554 367.263 284.41 366.235 284.946 365.512L318.818 319.698C319.125 319.283 319.606 319.041 320.115 319.043C320.624 319.046 321.102 319.295 321.404 319.713L352.049 362.2Z" fill="#DC5D3C"/>
<path fill-rule="evenodd" clip-rule="evenodd" d="M331.181 167.434C331.013 166.961 330.921 166.45 330.921 165.919C330.921 163.429 332.942 161.407 335.433 161.407C337.922 161.407 339.944 163.429 339.944 165.919C339.944 168.409 337.922 170.431 335.433 170.431C334.827 170.431 334.251 170.311 333.722 170.095L288.568 222.893C288.857 223.488 289.02 224.156 289.02 224.862C289.02 227.352 286.998 229.373 284.509 229.373C282.018 229.373 279.997 227.352 279.997 224.862C279.997 224.738 280.001 224.616 280.012 224.496L275.711 221.511C274.946 222.105 273.987 222.458 272.946 222.458C272.44 222.458 271.956 222.375 271.503 222.223L225.889 282.337C226.028 282.773 226.103 283.236 226.103 283.717C226.103 286.206 224.082 288.229 221.591 288.229C219.1 288.229 217.08 286.206 217.08 283.717C217.08 283.474 217.098 283.236 217.135 283.005L189.018 254.825C188.39 255.156 187.675 255.344 186.915 255.344C186.461 255.344 186.022 255.277 185.609 255.15L136.645 331.377C137.044 332.05 137.274 332.835 137.274 333.675C137.274 336.164 135.252 338.187 132.762 338.187C130.272 338.187 128.25 336.164 128.25 333.675C128.25 331.185 130.272 329.162 132.762 329.162C133.069 329.162 133.369 329.193 133.659 329.252L182.818 252.722C182.552 252.147 182.404 251.507 182.404 250.833C182.404 248.342 184.426 246.32 186.915 246.32C189.406 246.32 191.428 248.342 191.428 250.833C191.428 251.208 191.381 251.574 191.295 251.924L219.199 279.892C219.893 279.457 220.713 279.206 221.591 279.206C222.23 279.206 222.838 279.338 223.389 279.578L268.8 219.73C268.564 219.183 268.432 218.58 268.432 217.947C268.432 215.457 270.455 213.435 272.946 213.435C275.435 213.435 277.457 215.457 277.457 217.947C277.457 218.052 277.453 218.156 277.446 218.26L281.782 221.268C282.539 220.692 283.484 220.35 284.509 220.35C284.948 220.35 285.372 220.413 285.773 220.53L331.181 167.434Z" fill="#FFAFA4"/>
<path d="M240.795 129.066H97.4197V237.371H240.795V129.066Z" fill="#FFF1E2"/>
<path fill-rule="evenodd" clip-rule="evenodd" d="M126.188 147.37H116.432V226.823H126.188V147.37ZM145.545 140.278H135.789V226.781H145.545V140.278ZM164.902 158.431H155.146V226.735H164.902V158.431ZM184.26 147.162H174.503V226.685H184.26V147.162ZM203.617 169.258H193.862V226.631H203.617V169.258ZM222.972 185.294H213.217V226.572H222.972V185.294Z" fill="#FFAFA4" fill-opacity="0.64"/>
<path fill-rule="evenodd" clip-rule="evenodd" d="M261.401 350.452H241.909V324.528H228.569L251.655 291.05L274.741 324.528H261.401V350.452Z" fill="#E5734E"/>
<path fill-rule="evenodd" clip-rule="evenodd" d="M367.04 134.106H386.532V160.03H399.872L376.786 193.508L353.7 160.03H367.04V134.106Z" fill="#FFB000"/>
<path d="M318.512 287.531C336.453 287.531 350.997 272.736 350.997 254.487C350.997 236.237 336.453 221.443 318.512 221.443C300.57 221.443 286.026 236.237 286.026 254.487C286.026 272.736 300.57 287.531 318.512 287.531Z" fill="#FFCD80"/>
<path fill-rule="evenodd" clip-rule="evenodd" d="M310.926 231.946L309.731 232.38L309.14 230.693L311.224 229.937C311.718 229.758 312.249 229.991 312.412 230.457L313.412 233.31C315.264 232.726 317.112 232.368 318.953 232.237C321.306 232.068 323.65 232.268 325.984 232.836C326.248 232.899 326.462 233.073 326.574 233.308C326.684 233.545 326.681 233.82 326.562 234.064L323.932 239.476C323.733 239.883 323.265 240.105 322.823 240.002C320.53 239.466 318.182 239.485 315.777 240.056L319.11 249.564C328.323 248.169 333.827 250.571 335.757 256.453C336.819 259.643 336.493 262.724 334.789 265.68C333.257 268.45 330.739 270.789 327.211 272.676L328.93 277.579C329.093 278.044 328.826 278.565 328.333 278.744L326.286 279.486L325.695 277.801L326.852 277.381L325.171 272.585C325.021 272.158 325.232 271.677 325.663 271.464C329.173 269.72 331.675 267.539 333.15 264.875C334.594 262.368 334.863 259.768 333.965 257.07C332.229 251.778 327.051 250.024 318.583 251.467C318.136 251.542 317.712 251.304 317.57 250.9L313.671 239.776C313.589 239.543 313.614 239.285 313.737 239.059C313.86 238.836 314.072 238.666 314.323 238.593C317.14 237.756 319.891 237.587 322.57 238.084L324.383 234.357C322.597 234.018 320.806 233.909 319.007 234.039C317.043 234.179 315.074 234.6 313.096 235.3C312.606 235.473 312.08 235.239 311.918 234.776L310.926 231.946ZM324.82 265.854C325.985 265.013 326.749 264.147 327.069 263.228C327.263 262.64 327.342 262.028 327.306 261.395L329.183 261.22C329.228 262.078 329.118 262.906 328.851 263.718C328.325 265.223 326.994 266.68 324.784 268.021C324.54 268.168 324.244 268.206 323.978 268.122C323.714 268.037 323.508 267.839 323.419 267.585L321.329 261.623L323.11 260.977L324.82 265.854ZM306.707 245.536C306.753 244.66 306.938 243.877 307.253 243.188C307.261 243.171 307.27 243.154 307.278 243.137C308.035 241.714 309.153 240.647 310.627 239.935C310.868 239.819 311.148 239.805 311.392 239.895C311.637 239.987 311.825 240.177 311.908 240.415L313.619 245.298L311.838 245.944L310.488 242.094C309.852 242.565 309.342 243.158 308.956 243.875C308.734 244.37 308.614 244.931 308.581 245.559C308.582 245.575 308.58 245.592 308.577 245.609C308.506 246.273 308.623 247.004 308.903 247.803L307.121 248.449C306.75 247.391 306.619 246.419 306.707 245.536Z" fill="#FDA31F"/>
<path fill-rule="evenodd" clip-rule="evenodd" d="M309.692 251.499C308.482 250.869 307.619 249.858 307.124 248.446L308.906 247.8C309.245 248.768 309.818 249.475 310.649 249.905L310.679 249.92C311.343 250.297 312.256 250.453 313.415 250.431L311.841 245.942L313.623 245.295L315.596 250.924C315.687 251.186 315.645 251.479 315.482 251.719C315.32 251.957 315.054 252.116 314.763 252.146C312.517 252.38 310.832 252.136 309.692 251.499Z" fill="#FDA31F"/>
<path fill-rule="evenodd" clip-rule="evenodd" d="M321.696 256.939L323.111 260.975L321.329 261.621L319.555 256.562C319.469 256.315 319.501 256.039 319.643 255.807C319.787 255.574 320.025 255.408 320.296 255.355C322.919 254.836 324.845 254.993 326.088 255.686L326.116 255.704C327.353 256.458 328.222 257.533 328.713 258.935C328.988 259.719 329.143 260.482 329.183 261.219L327.306 261.393C327.275 260.807 327.15 260.203 326.932 259.581C326.578 258.574 325.962 257.797 325.078 257.253C324.299 256.824 323.17 256.742 321.696 256.939Z" fill="#FDA31F"/>
<path fill-rule="evenodd" clip-rule="evenodd" d="M316.025 257.892C307.137 259.151 301.875 256.777 300.094 251.09C298.978 247.678 299.198 244.614 300.69 241.899C302.056 239.415 304.516 237.208 308.113 235.319L307.085 232.386C306.921 231.92 307.187 231.398 307.679 231.22L309.138 230.69L309.73 232.377L309.162 232.583L310.154 235.413C310.304 235.842 310.092 236.325 309.658 236.538C306.093 238.292 303.638 240.324 302.339 242.686C301.076 244.987 300.943 247.585 301.892 250.489C303.486 255.583 308.429 257.305 316.562 255.996C317.005 255.925 317.427 256.162 317.567 256.562L321.654 268.222C321.738 268.46 321.71 268.724 321.582 268.951C321.452 269.179 321.231 269.347 320.973 269.416C318.674 270.027 316.619 270.239 314.816 270.066C313.255 269.983 311.787 269.708 310.411 269.242L307.952 273.202C309.988 273.711 312.143 273.982 314.409 274.019C317.045 274.038 319.651 273.597 322.231 272.698C322.723 272.528 323.245 272.761 323.407 273.222L325.088 278.018L325.694 277.799L326.285 279.484L324.787 280.027C324.296 280.205 323.765 279.973 323.602 279.508L321.912 274.685C319.4 275.466 316.866 275.844 314.302 275.825C311.428 275.779 308.736 275.378 306.218 274.627C305.954 274.548 305.743 274.355 305.649 274.102C305.553 273.851 305.585 273.565 305.732 273.326L309.237 267.686C309.483 267.285 309.998 267.113 310.43 267.287C311.842 267.854 313.375 268.178 315.023 268.264L315.067 268.267C316.404 268.398 317.895 268.28 319.54 267.92L316.025 257.892Z" fill="#FDA31F"/>
<path fill-rule="evenodd" clip-rule="evenodd" d="M325.365 291.668C322.952 292.174 320.45 292.44 317.891 292.44C315.768 292.44 314.049 290.689 314.049 288.533C314.049 286.376 315.768 284.625 317.891 284.625C334.024 284.625 347.122 271.302 347.122 254.892C347.122 238.481 334.024 225.158 317.891 225.158C315.768 225.158 314.049 223.407 314.049 221.25C314.049 219.094 315.768 217.342 317.891 217.342C338.264 217.342 354.805 234.168 354.805 254.892C354.805 270.252 345.717 283.47 332.717 289.282L356.8 347.068C357.629 349.054 356.716 351.35 354.764 352.19C352.812 353.033 350.555 352.104 349.727 350.119L325.365 291.668Z" fill="#DC5D3C"/>
<path fill-rule="evenodd" clip-rule="evenodd" d="M317.89 284.624C301.757 284.624 288.659 271.301 288.659 254.891C288.659 238.481 301.757 225.158 317.89 225.158C320.01 225.158 321.732 223.407 321.732 221.25C321.732 219.093 320.01 217.342 317.89 217.342C297.517 217.342 280.975 234.167 280.975 254.891C280.975 275.614 297.517 292.439 317.89 292.439C320.01 292.439 321.732 290.688 321.732 288.532C321.732 286.375 320.01 284.624 317.89 284.624Z" fill="#DC5D3C"/>
<path fill-rule="evenodd" clip-rule="evenodd" d="M369.621 304.401C369.621 304.401 367.554 296.502 368.238 286.432C369.203 272.269 378.114 259.945 391.118 254.787C404.12 249.63 418.882 252.565 429.017 262.324C431.358 264.588 433.492 267.248 435.288 270.376C444.115 285.763 446.977 302.725 439.543 319.485C439.543 319.485 444.333 351.487 437.433 374.555C433.951 386.141 424.073 394.543 412.248 395.979C411.849 396.033 411.448 396.079 411.042 396.128C400.242 397.44 389.648 392.406 383.703 383.142C372.128 365.103 354.323 337.358 354.323 337.358C354.323 337.358 344.248 338.249 340.356 338.594C338.964 338.721 337.717 337.722 337.513 336.315C337.401 335.472 337.66 334.544 338.844 333.758C338.844 333.758 337.593 333.748 336.613 333.506C335.067 333.128 334.447 331.782 334.38 330.341C334.318 328.985 334.711 327.42 336.524 326.502C334.241 326.939 332.027 325.456 331.523 323.151C331.501 323.058 331.482 322.97 331.465 322.887C331.28 322.049 331.398 321.172 331.794 320.415C332.169 319.695 332.814 318.906 333.919 318.43C333.919 318.43 332.843 318.09 331.681 317.724C330.003 317.194 328.857 315.616 328.857 313.828V313.826C328.857 312.241 329.799 310.809 331.242 310.204C334.375 308.882 339.494 306.728 339.494 306.728C339.494 306.728 332.901 298.175 335.643 295.662C336.13 295.215 337.218 294.956 340.416 297.726C341.624 298.771 346.313 300.107 352.246 299.279C352.246 299.279 360.009 299.23 369.621 304.401ZM376.757 212.364C386.844 212.364 395.034 220.695 395.034 230.956C395.034 241.217 386.844 249.548 376.757 249.548C366.668 249.548 358.477 241.217 358.477 230.956C358.477 220.695 366.668 212.364 376.757 212.364Z" fill="#A8CFCC"/>
<path fill-rule="evenodd" clip-rule="evenodd" d="M353.703 337.414L357.708 336.955C358.234 336.893 358.709 337.279 358.769 337.817C358.829 338.352 358.45 338.835 357.922 338.896L355.487 339.175L354.322 337.357L353.703 337.414ZM334.869 332.202L346.44 331.115C346.968 331.064 347.436 331.459 347.484 331.997C347.534 332.534 347.146 333.01 346.617 333.059L338.787 333.794C338.804 333.782 338.823 333.77 338.843 333.757C338.843 333.757 337.592 333.748 336.612 333.506C335.783 333.303 335.222 332.825 334.869 332.202ZM332.794 325.407C332.881 325.356 332.979 325.317 333.082 325.292L343.801 322.943C344.317 322.828 344.828 323.165 344.941 323.693C345.052 324.218 344.723 324.738 344.204 324.853L336.403 326.565C336.441 326.543 336.482 326.521 336.523 326.501C335.13 326.767 333.764 326.321 332.794 325.407ZM330.856 317.357L342.29 313.774C342.797 313.615 343.335 313.904 343.491 314.419C343.647 314.934 343.361 315.481 342.855 315.64L333.824 318.471C333.855 318.456 333.887 318.442 333.918 318.429C333.918 318.429 332.842 318.09 331.68 317.723C331.39 317.631 331.113 317.509 330.856 317.357ZM338.333 305.099L342.334 303.416C342.824 303.209 343.385 303.445 343.589 303.944C343.791 304.444 343.558 305.016 343.068 305.221L339.491 306.726C339.46 306.684 338.975 306.051 338.333 305.099Z" fill="#82B5B2"/>
<path fill-rule="evenodd" clip-rule="evenodd" d="M369.529 304.034C369.137 302.368 367.637 295.229 368.234 286.434C369.2 272.271 378.11 259.947 391.114 254.789C404.116 249.632 418.878 252.567 429.013 262.326C431.355 264.59 433.489 267.25 435.285 270.378C444.112 285.765 446.974 302.727 439.54 319.487C439.54 319.487 444.33 351.489 437.429 374.557C433.948 386.143 424.07 394.545 412.244 395.981C411.846 396.035 411.445 396.081 411.039 396.13C400.239 397.442 389.645 392.408 383.7 383.144L375.774 370.793L402.721 338.759C388.634 316.453 373.291 306.303 369.529 304.034Z" fill="url(#paint0_linear_1_3157)"/>
<path fill-rule="evenodd" clip-rule="evenodd" d="M402.62 338.597C402.668 338.644 402.714 338.7 402.752 338.759L420.158 365.483C420.451 365.935 420.331 366.54 419.889 366.838C419.447 367.136 418.852 367.012 418.559 366.562L401.441 340.283L402.724 338.759L402.62 338.597ZM439.71 320.722L439.753 321.069L439.701 321.181C439.701 321.181 435.856 299.412 430.341 282.77C430.209 282.426 430.363 282.037 430.689 281.881C431.016 281.722 431.407 281.849 431.587 282.169C434.524 287.97 438.55 296.652 443.014 308.337C442.949 308.683 442.882 309.03 442.81 309.375L442.808 309.387L442.774 309.548L442.772 309.563L442.736 309.726L442.733 309.736C442.661 310.081 442.582 310.425 442.5 310.767L442.498 310.779L442.459 310.935L442.455 310.96L442.419 311.111L442.409 311.14L442.373 311.289L442.366 311.316L442.327 311.47L442.325 311.48C442.267 311.705 442.207 311.929 442.147 312.156L442.142 312.171L442.104 312.315L442.092 312.357L442.056 312.489L442.042 312.54L442.006 312.669L441.991 312.723L441.955 312.85L441.941 312.904L441.902 313.033L441.89 313.077L441.85 313.214C441.833 313.273 441.816 313.331 441.797 313.39L441.751 313.541L441.744 313.566L441.708 313.688L441.689 313.751L441.653 313.864L441.631 313.937L441.597 314.044L441.573 314.123L441.54 314.228L441.513 314.308L441.48 314.413L441.453 314.494L441.42 314.596L441.393 314.679L441.36 314.782L441.326 314.88L441.302 314.958L441.271 315.046L441.24 315.141L441.208 315.234L441.175 315.329L441.144 315.419L441.11 315.515L441.079 315.605L441.045 315.703L441.014 315.791L440.978 315.891L440.947 315.976L440.911 316.081L440.882 316.162L440.836 316.284L440.812 316.348L440.745 316.531L440.721 316.592L440.675 316.716L440.647 316.792L440.606 316.902L440.575 316.983L440.534 317.09L440.503 317.171L440.462 317.278L440.431 317.359L440.387 317.469L440.356 317.544L440.308 317.664L440.282 317.73L440.219 317.884L440.207 317.916L440.13 318.101L440.109 318.157L440.054 318.287L440.025 318.36L439.977 318.475L439.945 318.551L439.897 318.66L439.866 318.739L439.818 318.851L439.785 318.927L439.737 319.041L439.705 319.112L439.65 319.239L439.624 319.298L439.542 319.486L439.556 319.584L439.559 319.615L439.573 319.706L439.578 319.75L439.597 319.879L439.604 319.928L439.626 320.101L439.633 320.153L439.665 320.373L439.669 320.417L439.705 320.695L439.71 320.722ZM378.629 310.684C378.629 310.684 377.714 303.491 376.482 282.353C376.453 281.881 376.773 281.735 376.948 281.695C377.26 281.625 377.498 281.83 377.527 282.011L382.677 314.274C381.253 312.943 379.899 311.749 378.629 310.684Z" fill="#28625E"/>
<path fill-rule="evenodd" clip-rule="evenodd" d="M362.518 219.303C365.87 215.073 371.004 212.364 376.757 212.364C386.844 212.364 395.034 220.695 395.034 230.956C395.034 236.762 392.412 241.95 388.309 245.36L381.929 238.914C382.608 238.865 383.309 238.682 383.989 238.353C386.392 237.189 387.01 234.128 386.085 232.153C385.158 230.177 382.457 229.518 380.056 230.682C378.498 231.438 378.025 233.287 377.732 234.673L362.518 219.303Z" fill="black"/>
<path d="M201.523 270.662C219.464 270.662 234.008 255.868 234.008 237.618C234.008 219.369 219.464 204.575 201.523 204.575C183.581 204.575 169.037 219.369 169.037 237.618C169.037 255.868 183.581 270.662 201.523 270.662Z" fill="#A8CFCC"/>
<path fill-rule="evenodd" clip-rule="evenodd" d="M169.857 230.196C170.093 230.089 170.379 230.027 170.726 230.089C171.41 230.211 171.896 230.807 171.916 231.487C172.144 231.897 172.757 232.969 173.489 233.98C175.217 236.368 178.132 239.798 182.169 243.299C184.017 235.253 187.557 228.544 191.47 223.164C185.691 218.628 182.512 214.45 181.866 213.652C181.359 213.028 181.448 212.104 182.061 211.589C182.675 211.075 183.583 211.164 184.089 211.788C184.707 212.549 187.734 216.526 193.242 220.844C200.748 211.481 208.878 206.82 208.878 206.82C209.57 206.423 210.449 206.672 210.84 207.377C211.231 208.081 210.987 208.976 210.293 209.373C210.293 209.373 202.645 213.759 195.555 222.566C201.046 226.45 208.513 230.304 218.007 232.093C219.028 225.048 218.656 218.503 217.938 213.651C217.82 212.851 218.363 212.104 219.148 211.984C219.935 211.863 220.67 212.415 220.788 213.215C221.542 218.31 221.919 225.168 220.848 232.557C224.543 233.068 228.524 233.262 232.791 233.034C233.144 233.015 233.47 233.126 233.732 233.326C233.823 234.037 233.891 234.755 233.939 235.478C233.691 235.757 233.341 235.94 232.942 235.961C228.447 236.201 224.253 235.994 220.356 235.451C218.961 242.599 216.127 250.082 210.927 256.838C216.156 257.61 221.876 257.657 228.066 256.655C227.259 257.818 226.378 258.927 225.434 259.972C219.424 260.641 213.861 260.375 208.758 259.454C205.27 263.367 200.892 266.969 195.427 270.035C195.408 270.047 195.387 270.056 195.365 270.066C194.774 269.951 194.191 269.82 193.612 269.673C193.559 269.607 193.511 269.536 193.471 269.458C193.086 268.75 193.341 267.858 194.037 267.468C198.597 264.908 202.355 261.953 205.438 258.748C196.885 256.658 189.756 252.766 184.145 248.594C183.516 253.34 183.518 258.519 184.402 264.131C184.478 264.625 184.303 265.101 183.972 265.423C183.083 264.842 182.226 264.219 181.4 263.555C180.536 257.378 180.68 251.707 181.53 246.545C174.719 240.923 170.628 235.243 169.478 233.102C169.437 233.027 169.4 232.954 169.365 232.883C169.493 231.975 169.658 231.078 169.857 230.196ZM193.778 224.89C189.852 230.294 186.322 237.116 184.678 245.363C190.503 249.905 198.213 254.247 207.668 256.252C213.162 249.614 216.098 242.131 217.513 234.987C207.457 233.101 199.562 229.004 193.778 224.89ZM170.714 232.977C170.647 232.989 170.579 232.996 170.509 232.997C170.44 232.999 170.37 232.995 170.299 232.986C170.45 233.006 170.588 233.001 170.714 232.977Z" fill="#82B5B2"/>
<path fill-rule="evenodd" clip-rule="evenodd" d="M90.6312 300.033C90.6312 300.033 42.89 261.61 76.052 216.1C79.5816 211.257 100.999 183.025 131.435 163.89C132.623 163.14 134.153 163.265 135.209 164.197C135.883 164.806 136.321 165.736 135.886 167.164C135.886 167.164 140.597 166.12 140.272 170.722C140.272 170.722 145.788 169.218 145.979 174.997C145.979 174.997 155.098 163.632 159.07 158.68C160.112 157.382 161.932 157.059 163.343 157.922C163.344 157.922 163.344 157.922 163.344 157.922C163.985 158.313 164.446 158.948 164.626 159.685C164.806 160.423 164.691 161.203 164.305 161.854C147.354 190.41 129.336 216.609 111.263 242.689C111.263 242.689 126.171 258.029 133.853 263.551C136.973 265.791 168.145 285.603 172.653 296.452C172.653 296.452 173.033 293.966 173.467 291.135C174.217 286.226 177.774 282.25 182.504 281.024C185.712 280.193 188.689 279.422 188.689 279.422C188.689 279.422 194.01 278.498 198.541 278.535C201.509 278.557 204.131 280.499 205.067 283.361C205.497 284.682 205.317 286.131 204.573 287.298C204.153 287.96 203.78 288.541 203.78 288.541C203.78 288.541 204.849 288.91 205.84 289.252C206.897 289.616 207.749 290.42 208.189 291.462C209.044 293.494 208.676 295.846 207.243 297.51C206.796 298.03 206.465 298.413 206.465 298.413H206.789C208.479 298.413 209.999 299.459 210.631 301.056C211.498 303.249 210.796 305.76 208.928 307.164C208.465 307.511 208.143 307.755 208.143 307.755C208.729 307.553 209.276 307.963 209.661 308.903C210.422 310.762 209.723 312.909 208.066 314.01C205.483 315.727 202.073 317.994 202.073 317.994C201.307 334.023 199.403 351.312 190.459 371.918C187.76 378.115 182.451 382.733 176.016 384.484C176.012 384.489 176.007 384.489 176.002 384.492C162.532 388.155 148.415 381.485 142.481 368.653C139.631 362.486 136.589 354.885 133.853 345.934C133.853 345.934 122.53 347.439 111.263 341.636C97.7275 334.665 84.2741 318.863 90.6312 300.033Z" fill="url(#paint1_linear_1_3157)"/>
<path fill-rule="evenodd" clip-rule="evenodd" d="M70.2744 273.858C71.6963 269.418 76.6594 259.446 92.42 260.384C92.42 260.384 98.01 243.804 115.685 247.14C120.698 252.113 128.825 259.937 133.855 263.552C136.974 265.791 168.147 285.604 172.655 296.452L172.707 296.113C175.616 304.798 180.899 323.438 178.244 343.609C178.244 343.609 167.778 350.729 157.599 341.785C157.599 341.785 147.964 354.788 134.028 346.496C133.97 346.308 133.912 346.123 133.855 345.934C133.855 345.934 122.531 347.439 111.264 341.636C97.729 334.665 84.2757 318.863 90.6328 300.033C90.6328 300.033 78.0297 289.89 70.2744 273.858ZM136.531 259.229L140.632 261.825C139.153 261.139 137.776 260.264 136.531 259.229Z" fill="#FD9500"/>
<path fill-rule="evenodd" clip-rule="evenodd" d="M176.807 338.919L174.48 365.648C174.434 366.185 174.824 366.661 175.352 366.708C175.88 366.756 176.346 366.358 176.394 365.821L178.718 339.092C178.766 338.555 178.375 338.078 177.847 338.032C177.318 337.983 176.853 338.381 176.807 338.919Z" fill="#FD9500"/>
<path fill-rule="evenodd" clip-rule="evenodd" d="M126.944 345.975C126.125 336.195 128.311 328.243 129.772 324.189C129.89 323.906 130.186 323.749 130.481 323.81C130.775 323.871 130.987 324.135 130.987 324.44C131.27 332.39 133.327 343.1 133.991 346.38C133.945 346.231 133.899 346.085 133.854 345.936C133.854 345.936 131.094 346.302 126.944 345.975ZM83.9768 293.63C87.4524 289.244 90.8884 285.925 94.0871 283.411C99.013 279.54 103.376 277.582 106.452 276.58C106.808 276.5 107.17 276.69 107.313 277.03C107.456 277.371 107.338 277.767 107.034 277.972C97.7267 284.449 92.4188 295.667 90.6228 300.027C90.4468 299.883 87.6678 297.614 83.9768 293.63Z" fill="#E15D33"/>
<path fill-rule="evenodd" clip-rule="evenodd" d="M208.161 307.749C208.742 307.564 209.28 307.976 209.659 308.904C209.681 308.956 209.7 309.007 209.719 309.058C207.945 310.187 204.086 312.414 200.561 312.91C200.035 312.983 199.55 312.61 199.478 312.077C199.404 311.542 199.771 311.049 200.297 310.976C203.217 310.565 206.377 308.848 208.161 307.749ZM206.466 298.415H206.787C207.57 298.415 208.317 298.639 208.955 299.04C207.897 299.826 203.678 302.816 199.257 303.885C198.741 304.01 198.225 303.685 198.1 303.16C197.978 302.637 198.297 302.11 198.813 301.985C201.831 301.253 204.746 299.553 206.466 298.415ZM203.791 288.547L205.702 289.207C203.942 291.52 200.64 294.959 196.042 295.897C195.524 296.004 195.017 295.66 194.911 295.132C194.808 294.602 195.144 294.087 195.665 293.982C199.404 293.217 202.165 290.57 203.791 288.547Z" fill="#FD9500"/>
<path fill-rule="evenodd" clip-rule="evenodd" d="M190.943 282.104C190.943 282.104 187.666 282.839 184.21 282.339C183.684 282.263 183.199 282.637 183.123 283.169C183.048 283.704 183.416 284.197 183.939 284.273C187.745 284.825 191.356 284.014 191.356 284.014C191.872 283.897 192.201 283.374 192.086 282.849C191.973 282.322 191.459 281.989 190.943 282.104Z" fill="#FD9500"/>
<path fill-rule="evenodd" clip-rule="evenodd" d="M145.448 172.589C145.749 173.201 145.945 173.988 145.979 174.998L147.428 173.192C147.4 173.244 147.367 173.294 147.328 173.341L143.735 177.768C143.397 178.184 142.791 178.242 142.382 177.899C141.974 177.556 141.916 176.939 142.254 176.524L145.448 172.589ZM139.785 168.316C140.143 168.861 140.348 169.633 140.272 170.72L138.044 173.314C137.695 173.721 137.088 173.762 136.689 173.408C136.289 173.053 136.248 172.435 136.597 172.029L139.785 168.316ZM135.653 164.707C136.045 165.294 136.214 166.088 135.886 167.165H135.886C134.684 168.318 133.297 169.656 133.297 169.656C132.912 170.027 132.304 170.011 131.939 169.619C131.574 169.228 131.59 168.609 131.975 168.238C131.975 168.238 134.431 165.87 135.653 164.707Z" fill="#FD9500"/>
<path fill-rule="evenodd" clip-rule="evenodd" d="M111.26 242.688C111.26 242.688 104.922 236.321 101.168 232.551C100.91 232.292 100.871 231.887 101.074 231.583C101.277 231.28 101.667 231.162 102.004 231.301C106.959 233.352 115.364 236.831 115.364 236.831L111.26 242.688Z" fill="#FD9500"/>
<path fill-rule="evenodd" clip-rule="evenodd" d="M187.844 284.399L189.301 273.525C186.972 272.705 184.691 271.635 182.489 270.301C180.667 269.2 180.067 266.799 181.15 264.945C182.235 263.092 184.595 262.483 186.415 263.585C200.282 271.974 218.235 267.332 226.482 253.228C234.728 239.124 230.166 220.863 216.299 212.474C214.477 211.372 213.877 208.972 214.962 207.118C216.045 205.265 218.405 204.654 220.227 205.757C237.739 216.35 243.499 239.411 233.085 257.223C225.366 270.426 210.914 277.062 196.819 275.299L195.871 282.372C194.132 283.209 191.251 284.294 187.844 284.399Z" fill="#DC5D3C"/>
<path fill-rule="evenodd" clip-rule="evenodd" d="M186.417 263.582C172.55 255.194 167.988 236.933 176.234 222.829C184.481 208.725 202.433 204.084 216.299 212.472C218.122 213.575 220.481 212.965 221.565 211.111C222.649 209.257 222.049 206.857 220.227 205.755C202.716 195.162 180.044 201.022 169.63 218.834C159.217 236.645 164.978 259.707 182.489 270.3C184.311 271.402 186.671 270.792 187.755 268.939C188.839 267.085 188.239 264.685 186.417 263.582Z" fill="#DC5D3C"/>
<path d="M148.457 263.551C158.888 263.551 167.344 254.95 167.344 244.339C167.344 233.729 158.888 225.128 148.457 225.128C138.026 225.128 129.57 233.729 129.57 244.339C129.57 254.95 138.026 263.551 148.457 263.551Z" fill="#FFBB22"/>
<path fill-rule="evenodd" clip-rule="evenodd" d="M141.89 251.928C138.483 252.525 134.857 252.61 131.096 251.913C130.114 249.589 129.57 247.028 129.57 244.339C129.57 233.736 138.033 225.128 148.457 225.128C156.766 225.128 163.829 230.598 166.352 238.186C165.561 241.798 159.618 249.013 147.41 250.484C147.805 249.457 147.837 248.208 147.412 246.994C146.578 244.611 144.297 243.257 142.322 243.973C140.346 244.688 139.42 247.204 140.254 249.587C140.596 250.564 141.182 251.369 141.89 251.928Z" fill="black"/>
<path d="M154.97 223.778C162.084 223.778 167.851 217.912 167.851 210.676C167.851 203.441 162.084 197.575 154.97 197.575C147.857 197.575 142.09 203.441 142.09 210.676C142.09 217.912 147.857 223.778 154.97 223.778Z" fill="black"/>
<path fill-rule="evenodd" clip-rule="evenodd" d="M291.593 169.085C284.641 182.482 270.804 191.618 254.885 191.618C231.983 191.618 213.386 172.703 213.386 149.406C213.386 135.229 220.273 122.675 230.833 115.028L254.885 149.406L291.593 169.085Z" fill="#E5734E"/>
<path fill-rule="evenodd" clip-rule="evenodd" d="M254.887 149.406L230.835 115.029C236.857 110.649 244.082 107.877 251.905 107.315L254.887 149.406Z" fill="#FFBB22"/>
<path fill-rule="evenodd" clip-rule="evenodd" d="M252.98 107.242L254.882 107.193C266.549 107.193 277.099 112.101 284.636 120.005L254.882 149.405L251.9 107.314L252.462 107.27L252.98 107.242Z" fill="#A8CFCC"/>
<path fill-rule="evenodd" clip-rule="evenodd" d="M295.852 117.531C303.123 125.126 307.599 135.501 307.599 146.931C307.599 154.037 305.867 160.735 302.806 166.61L266.098 146.931L295.852 117.531Z" fill="#FFCBC4"/>
<defs>
<linearGradient id="paint0_linear_1_3157" x1="368.095" y1="324.31" x2="471.885" y2="405.854" gradientUnits="userSpaceOnUse">
<stop stop-color="#82B5B2"/>
<stop offset="0.57" stop-color="#9AC1BB"/>
<stop offset="0.8" stop-color="#CED9CF"/>
<stop offset="1" stop-color="#FFF1E2"/>
</linearGradient>
<linearGradient id="paint1_linear_1_3157" x1="140.534" y1="337.41" x2="47.2487" y2="361.226" gradientUnits="userSpaceOnUse">
<stop stop-color="#FFBB22"/>
<stop offset="0.47" stop-color="#FEB019"/>
<stop offset="1" stop-color="#FD9500"/>
</linearGradient>
</defs>
</svg>
