<svg width="43" height="43" viewBox="0 0 43 43" fill="none" xmlns="http://www.w3.org/2000/svg">
<g id="Group">
<path id="Vector" d="M5.01679 9.3167L12.5418 14.3334L20.0417 3.8342C20.2074 3.60195 20.4263 3.41263 20.6799 3.28201C20.9336 3.1514 21.2148 3.08325 21.5001 3.08325C21.7854 3.08325 22.0666 3.1514 22.3203 3.28201C22.574 3.41263 22.7928 3.60195 22.9585 3.8342L30.4585 14.3334L37.9835 9.3167C38.2682 9.12723 38.6013 9.02324 38.9433 9.01702C39.2853 9.0108 39.622 9.10262 39.9135 9.28162C40.205 9.46062 40.4391 9.71933 40.5883 10.0272C40.7374 10.335 40.7953 10.6791 40.7552 11.0188L37.8115 36.043C37.7601 36.4788 37.5506 36.8806 37.2227 37.1723C36.8947 37.4639 36.4712 37.625 36.0323 37.625H6.96791C6.52907 37.625 6.10552 37.4639 5.77758 37.1723C5.44964 36.8806 5.24013 36.4788 5.18879 36.043L2.24508 11.017C2.2053 10.6774 2.26351 10.3336 2.41282 10.0261C2.56213 9.71851 2.79631 9.4601 3.08772 9.28134C3.37913 9.10257 3.7156 9.01091 4.05742 9.01718C4.39924 9.02344 4.73212 9.12738 5.01679 9.3167ZM21.5001 26.875C22.4505 26.875 23.3619 26.4975 24.0339 25.8255C24.7059 25.1535 25.0835 24.2421 25.0835 23.2917C25.0835 22.3413 24.7059 21.4299 24.0339 20.7579C23.3619 20.0859 22.4505 19.7084 21.5001 19.7084C20.5498 19.7084 19.6383 20.0859 18.9663 20.7579C18.2943 21.4299 17.9168 22.3413 17.9168 23.2917C17.9168 24.2421 18.2943 25.1535 18.9663 25.8255C19.6383 26.4975 20.5498 26.875 21.5001 26.875Z" fill="#88BDE7"/>
</g>
</svg>
