<svg width="43" height="43" viewBox="0 0 43 43" fill="none" xmlns="http://www.w3.org/2000/svg">
<g id="Group">
<path id="Vector" d="M39.4166 10.75H26.8749C24.0238 10.75 21.2895 11.8826 19.2735 13.8986C17.2575 15.9146 16.1249 18.6489 16.1249 21.5C16.1249 24.3511 17.2575 27.0854 19.2735 29.1014C21.2895 31.1174 24.0238 32.25 26.8749 32.25H39.4166V35.8333C39.4166 36.3085 39.2278 36.7642 38.8918 37.1002C38.5558 37.4362 38.1001 37.625 37.6249 37.625H5.37492C4.89974 37.625 4.44402 37.4362 4.10802 37.1002C3.77202 36.7642 3.58325 36.3085 3.58325 35.8333V7.16667C3.58325 6.69149 3.77202 6.23577 4.10802 5.89977C4.44402 5.56376 4.89974 5.375 5.37492 5.375H37.6249C38.1001 5.375 38.5558 5.56376 38.8918 5.89977C39.2278 6.23577 39.4166 6.69149 39.4166 7.16667V10.75ZM26.8749 14.3333H41.2083V28.6667H26.8749C24.9742 28.6667 23.1513 27.9116 21.8073 26.5676C20.4633 25.2236 19.7083 23.4007 19.7083 21.5C19.7083 19.5993 20.4633 17.7764 21.8073 16.4324C23.1513 15.0884 24.9742 14.3333 26.8749 14.3333ZM26.8749 19.7083V23.2917H32.2499V19.7083H26.8749Z" fill="#88BDE7"/>
</g>
</svg>
